# Blender 3.6.2
# www.blender.org
mtllib city_block1.mtl
o block1
v 4.298398 0.000000 1.485227
v 4.298398 7.735547 1.485227
v 4.298398 0.000000 -3.049040
v 4.298398 7.735547 -3.049040
v 9.346781 0.000000 1.485227
v 9.346781 7.735547 1.485227
v 9.346781 0.000000 -3.049040
v 9.346781 7.735547 -3.049040
v 5.378453 0.000000 -3.040368
v 5.378453 5.281046 -3.040368
v 5.378453 0.000000 -10.032186
v 5.378453 5.281046 -10.032186
v 9.570488 0.000000 -3.040368
v 9.570488 5.281046 -3.040368
v 9.570488 0.000000 -10.032186
v 9.570488 5.281046 -10.032186
v 1.313225 0.000000 -9.986311
v 1.313225 6.190002 -9.986311
v 1.313225 0.000000 -15.808718
v 1.313225 6.190002 -15.808718
v 9.514563 0.000000 -9.986311
v 9.514563 6.190002 -9.986311
v 9.514563 0.000000 -15.808718
v 9.514563 6.190002 -15.808718
v -6.360663 0.000000 -10.057590
v -6.360663 2.663535 -10.057590
v -6.360663 0.000000 -15.211662
v -6.360663 2.663535 -15.211662
v -0.610803 0.000000 -10.057590
v -0.610803 2.663535 -10.057590
v -0.610803 0.000000 -15.211662
v -0.610803 2.663535 -15.211662
v -13.025029 0.000000 -9.457054
v -13.025029 6.153749 -9.457054
v -13.025029 0.000000 -15.319428
v -13.025029 6.153749 -15.319428
v -6.252335 0.000000 -9.457054
v -6.252335 6.153749 -9.457054
v -6.252335 0.000000 -15.319428
v -6.252335 6.153749 -15.319428
v -12.730454 0.000000 -2.986589
v -12.730454 5.051461 -2.986589
v -12.730454 0.000000 -9.620006
v -12.730454 5.051461 -9.620006
v -8.902916 0.000000 -2.986589
v -8.902916 5.051461 -2.986589
v -8.902916 0.000000 -9.620006
v -8.902916 5.051461 -9.620006
v -13.126966 0.000000 1.780015
v -13.126966 5.492949 1.780015
v -13.126966 0.000000 -3.255134
v -13.126966 5.492949 -3.255134
v -4.316539 0.000000 1.780015
v -4.316539 5.492949 1.780015
v -4.316539 0.000000 -3.255134
v -4.316539 5.492949 -3.255134
v -6.339539 2.458473 -9.975208
v 1.319930 2.458473 -9.975209
v -6.339539 6.620575 -9.975208
v 1.319930 6.620574 -9.975209
v -6.339539 2.458473 -15.472572
v 1.319930 2.458473 -15.472572
v -6.339539 6.620575 -15.472572
v 1.319930 6.620574 -15.472572
v -9.393395 0.000000 -6.748645
v -9.393395 7.381065 -6.748645
v -9.393395 0.000000 -9.964812
v -9.393395 7.381065 -9.964812
v -6.249745 0.000000 -6.748645
v -6.249745 7.381065 -6.748645
v -6.249745 0.000000 -9.964812
v -6.249745 7.381065 -9.964812
v -0.615499 4.687741 1.180256
v -0.615499 9.104196 1.180256
v -0.615499 4.687741 -2.154288
v -0.615499 9.104196 -2.154288
v 4.368493 4.687741 1.180256
v 4.368493 9.104196 1.180256
v 4.368493 4.687741 -2.154288
v 4.368493 9.104196 -2.154288
v -4.326968 4.686903 1.180256
v -4.326968 7.421890 1.180256
v -4.326968 4.686903 -2.147412
v -4.326968 7.421890 -2.147412
v -0.615499 4.686903 1.180256
v -0.615499 7.421890 1.180256
v -0.615499 4.686903 -2.147412
v -0.615499 7.421890 -2.147412
v 4.298398 0.000000 -3.049040
v 4.298398 0.000000 -3.049040
v 4.298398 0.000000 1.485227
v 4.298398 0.000000 1.485227
v 4.298398 7.735547 1.485227
v 4.298398 7.735547 1.485227
v 4.298398 7.735547 -3.049040
v 4.298398 7.735547 -3.049040
v 9.346781 0.000000 -3.049040
v 9.346781 0.000000 -3.049040
v 9.346781 7.735547 -3.049040
v 9.346781 7.735547 -3.049040
v 9.346781 0.000000 1.485227
v 9.346781 0.000000 1.485227
v 9.346781 7.735547 1.485227
v 9.346781 7.735547 1.485227
v 5.378453 0.000000 -10.032186
v 5.378453 0.000000 -10.032186
v 5.378453 0.000000 -3.040368
v 5.378453 0.000000 -3.040368
v 5.378453 5.281046 -3.040368
v 5.378453 5.281046 -3.040368
v 5.378453 5.281046 -10.032186
v 5.378453 5.281046 -10.032186
v 9.570488 0.000000 -10.032186
v 9.570488 0.000000 -10.032186
v 9.570488 5.281046 -10.032186
v 9.570488 5.281046 -10.032186
v 9.570488 0.000000 -3.040368
v 9.570488 0.000000 -3.040368
v 9.570488 5.281046 -3.040368
v 9.570488 5.281046 -3.040368
v 1.313225 0.000000 -15.808718
v 1.313225 0.000000 -15.808718
v 1.313225 0.000000 -9.986311
v 1.313225 0.000000 -9.986311
v 1.313225 6.190002 -9.986311
v 1.313225 6.190002 -9.986311
v 1.313225 6.190002 -15.808718
v 1.313225 6.190002 -15.808718
v 9.514563 0.000000 -15.808718
v 9.514563 0.000000 -15.808718
v 9.514563 6.190002 -15.808718
v 9.514563 6.190002 -15.808718
v 9.514563 0.000000 -9.986311
v 9.514563 0.000000 -9.986311
v 9.514563 6.190002 -9.986311
v 9.514563 6.190002 -9.986311
v -6.360663 0.000000 -15.211662
v -6.360663 0.000000 -15.211662
v -6.360663 0.000000 -10.057590
v -6.360663 0.000000 -10.057590
v -6.360663 2.663535 -10.057590
v -6.360663 2.663535 -10.057590
v -6.360663 2.663535 -15.211662
v -6.360663 2.663535 -15.211662
v -0.610803 0.000000 -15.211662
v -0.610803 0.000000 -15.211662
v -0.610803 2.663535 -15.211662
v -0.610803 2.663535 -15.211662
v -0.610803 0.000000 -10.057590
v -0.610803 0.000000 -10.057590
v -0.610803 2.663535 -10.057590
v -0.610803 2.663535 -10.057590
v -13.025029 0.000000 -15.319428
v -13.025029 0.000000 -15.319428
v -13.025029 0.000000 -9.457054
v -13.025029 0.000000 -9.457054
v -13.025029 6.153749 -9.457054
v -13.025029 6.153749 -9.457054
v -13.025029 6.153749 -15.319428
v -13.025029 6.153749 -15.319428
v -6.252335 0.000000 -15.319428
v -6.252335 0.000000 -15.319428
v -6.252335 6.153749 -15.319428
v -6.252335 6.153749 -15.319428
v -6.252335 0.000000 -9.457054
v -6.252335 0.000000 -9.457054
v -6.252335 6.153749 -9.457054
v -6.252335 6.153749 -9.457054
v -12.730454 0.000000 -9.620006
v -12.730454 0.000000 -9.620006
v -12.730454 0.000000 -2.986589
v -12.730454 0.000000 -2.986589
v -12.730454 5.051461 -2.986589
v -12.730454 5.051461 -2.986589
v -12.730454 5.051461 -9.620006
v -12.730454 5.051461 -9.620006
v -8.902916 0.000000 -9.620006
v -8.902916 0.000000 -9.620006
v -8.902916 5.051461 -9.620006
v -8.902916 5.051461 -9.620006
v -8.902916 0.000000 -2.986589
v -8.902916 0.000000 -2.986589
v -8.902916 5.051461 -2.986589
v -8.902916 5.051461 -2.986589
v -13.126966 0.000000 -3.255134
v -13.126966 0.000000 -3.255134
v -13.126966 0.000000 1.780015
v -13.126966 0.000000 1.780015
v -13.126966 5.492949 1.780015
v -13.126966 5.492949 1.780015
v -13.126966 5.492949 -3.255134
v -13.126966 5.492949 -3.255134
v -4.316539 0.000000 -3.255134
v -4.316539 0.000000 -3.255134
v -4.316539 5.492949 -3.255134
v -4.316539 5.492949 -3.255134
v -4.316539 0.000000 1.780015
v -4.316539 0.000000 1.780015
v -4.316539 5.492949 1.780015
v -4.316539 5.492949 1.780015
v -6.339539 6.620575 -9.975208
v -6.339539 6.620575 -9.975208
v -6.339539 2.458473 -9.975208
v -6.339539 2.458473 -9.975208
v 1.319930 2.458473 -9.975209
v 1.319930 2.458473 -9.975209
v 1.319930 6.620574 -9.975209
v 1.319930 6.620574 -9.975209
v -6.339539 6.620575 -15.472572
v -6.339539 6.620575 -15.472572
v 1.319930 6.620574 -15.472572
v 1.319930 6.620574 -15.472572
v -6.339539 2.458473 -15.472572
v -6.339539 2.458473 -15.472572
v 1.319930 2.458473 -15.472572
v 1.319930 2.458473 -15.472572
v -9.393395 0.000000 -9.964812
v -9.393395 0.000000 -9.964812
v -9.393395 0.000000 -6.748645
v -9.393395 0.000000 -6.748645
v -9.393395 7.381065 -6.748645
v -9.393395 7.381065 -6.748645
v -9.393395 7.381065 -9.964812
v -9.393395 7.381065 -9.964812
v -6.249745 0.000000 -9.964812
v -6.249745 0.000000 -9.964812
v -6.249745 7.381065 -9.964812
v -6.249745 7.381065 -9.964812
v -6.249745 0.000000 -6.748645
v -6.249745 0.000000 -6.748645
v -6.249745 7.381065 -6.748645
v -6.249745 7.381065 -6.748645
v -0.615499 4.687741 -2.154288
v -0.615499 4.687741 -2.154288
v -0.615499 4.687741 1.180256
v -0.615499 4.687741 1.180256
v -0.615499 9.104196 1.180256
v -0.615499 9.104196 1.180256
v -0.615499 9.104196 -2.154288
v -0.615499 9.104196 -2.154288
v 4.368493 4.687741 -2.154288
v 4.368493 4.687741 -2.154288
v 4.368493 9.104196 -2.154288
v 4.368493 9.104196 -2.154288
v 4.368493 4.687741 1.180256
v 4.368493 4.687741 1.180256
v 4.368493 9.104196 1.180256
v 4.368493 9.104196 1.180256
v -4.326968 4.686903 -2.147412
v -4.326968 4.686903 -2.147412
v -4.326968 4.686903 1.180256
v -4.326968 4.686903 1.180256
v -4.326968 7.421890 1.180256
v -4.326968 7.421890 1.180256
v -4.326968 7.421890 -2.147412
v -4.326968 7.421890 -2.147412
v -0.615499 4.686903 -2.147412
v -0.615499 4.686903 -2.147412
v -0.615499 7.421890 -2.147412
v -0.615499 7.421890 -2.147412
v -0.615499 4.686903 1.180256
v -0.615499 4.686903 1.180256
v -0.615499 7.421890 1.180256
v -0.615499 7.421890 1.180256
vn -1.0000 -0.0000 -0.0000
vn -0.0000 -0.0000 -1.0000
vn 1.0000 -0.0000 -0.0000
vn -0.0000 -0.0000 1.0000
vn -0.0000 -1.0000 -0.0000
vn -0.0000 1.0000 -0.0000
vt 0.446110 0.659463
vt 0.446110 0.705689
vt 0.419014 0.705689
vt 0.419014 0.659463
vt 0.909432 0.732114
vt 0.863206 0.732114
vt 0.863206 0.701946
vt 0.909432 0.701946
vt 0.324356 0.025574
vt 0.324356 0.071800
vt 0.297260 0.071800
vt 0.297260 0.025574
vt 0.212990 0.527131
vt 0.166764 0.527131
vt 0.166764 0.496963
vt 0.212990 0.496963
vt 0.466102 0.913368
vt 0.466102 0.943536
vt 0.439006 0.943536
vt 0.439006 0.913368
vt 0.168261 0.692316
vt 0.198429 0.692316
vt 0.198429 0.719412
vt 0.168261 0.719412
vt 0.324328 0.050590
vt 0.355887 0.050590
vt 0.355887 0.092372
vt 0.324328 0.092372
vt 0.250487 0.674951
vt 0.250487 0.706509
vt 0.225437 0.706509
vt 0.225437 0.674951
vt 0.679738 0.447661
vt 0.648179 0.447661
vt 0.648179 0.405879
vt 0.679738 0.405879
vt 0.130145 0.398110
vt 0.130145 0.429668
vt 0.105094 0.429668
vt 0.105094 0.398110
vt 0.753934 0.243455
vt 0.753934 0.268505
vt 0.712152 0.268505
vt 0.712152 0.243455
vt 0.641848 0.859508
vt 0.666898 0.859508
vt 0.666898 0.901290
vt 0.641848 0.901290
vt 0.034388 0.506599
vt 0.071378 0.506599
vt 0.071378 0.541393
vt 0.034388 0.541393
vt 0.649857 0.529884
vt 0.686847 0.529884
vt 0.686847 0.578893
vt 0.649857 0.578893
vt 0.480513 0.025707
vt 0.480513 0.062698
vt 0.445720 0.062698
vt 0.445720 0.025707
vt 0.907584 0.905955
vt 0.907584 0.942945
vt 0.858575 0.942945
vt 0.858575 0.905955
vt 0.074273 0.159988
vt 0.074273 0.208997
vt 0.039479 0.208997
vt 0.039479 0.159988
vt 0.949874 0.735429
vt 0.998884 0.735429
vt 0.998884 0.770223
vt 0.949874 0.770223
vt 0.979426 0.464836
vt 0.995342 0.464836
vt 0.995342 0.495636
vt 0.979426 0.495636
vt 0.066293 0.490780
vt 0.050377 0.490780
vt 0.050377 0.456420
vt 0.066293 0.456420
vt 0.592567 0.816304
vt 0.608484 0.816304
vt 0.608484 0.847104
vt 0.592567 0.847104
vt 0.027833 0.105198
vt 0.043749 0.105198
vt 0.043749 0.139557
vt 0.027833 0.139557
vt 0.956327 0.101751
vt 0.990687 0.101751
vt 0.990687 0.132551
vt 0.956327 0.132551
vt 0.270558 0.140061
vt 0.304918 0.140061
vt 0.304918 0.170861
vt 0.270558 0.170861
vt 0.968282 0.785555
vt 0.968282 0.822328
vt 0.933250 0.822328
vt 0.933250 0.785555
vt 0.671321 0.566042
vt 0.671321 0.602816
vt 0.630849 0.602816
vt 0.630849 0.566042
vt 0.592305 0.979017
vt 0.592305 1.015791
vt 0.557273 1.015791
vt 0.557273 0.979017
vt 0.123833 0.721096
vt 0.123833 0.757870
vt 0.083361 0.757870
vt 0.083361 0.721096
vt 0.005545 0.225188
vt 0.046018 0.225188
vt 0.046018 0.260220
vt 0.005545 0.260220
vt 0.125836 0.458644
vt 0.166309 0.458644
vt 0.166309 0.493677
vt 0.125836 0.493677
vt 0.633501 0.225040
vt 0.663687 0.225040
vt 0.663687 0.264680
vt 0.633501 0.264680
vt 0.973698 0.194550
vt 1.003884 0.194550
vt 1.003884 0.217423
vt 0.973698 0.217423
vt 0.275956 0.891834
vt 0.275956 0.922020
vt 0.236316 0.922020
vt 0.236316 0.891834
vt 0.901401 0.260295
vt 0.901401 0.290481
vt 0.878529 0.290481
vt 0.878529 0.260295
vt 0.313695 0.829683
vt 0.336568 0.829683
vt 0.336568 0.869323
vt 0.313695 0.869323
vt 0.862534 0.420247
vt 0.862534 0.443120
vt 0.822894 0.443120
vt 0.822894 0.420247
vt 0.088780 0.002435
vt 0.088780 0.035260
vt 0.058691 0.035260
vt 0.058691 0.002435
vt 0.565623 0.651279
vt 0.565623 0.684103
vt 0.512974 0.684103
vt 0.512974 0.651279
vt 0.307075 0.869616
vt 0.307075 0.902441
vt 0.276986 0.902441
vt 0.276986 0.869616
vt 0.615548 0.742236
vt 0.648372 0.742236
vt 0.648372 0.794885
vt 0.615548 0.794885
vt 0.746885 0.431371
vt 0.746885 0.378722
vt 0.776974 0.378722
vt 0.776974 0.431371
vt 0.961033 0.665743
vt 1.013682 0.665743
vt 1.013682 0.695831
vt 0.961033 0.695831
vt 0.625499 0.435101
vt 0.579727 0.435101
vt 0.579727 0.410229
vt 0.625499 0.410229
vt 0.084453 0.667143
vt 0.084453 0.712914
vt 0.051602 0.712914
vt 0.051602 0.667143
vt 0.639599 0.559942
vt 0.639599 0.605713
vt 0.614728 0.605713
vt 0.614728 0.559942
vt 0.628177 0.060990
vt 0.673948 0.060990
vt 0.673948 0.093841
vt 0.628177 0.093841
vt 0.602270 0.863445
vt 0.602270 0.896296
vt 0.577398 0.896296
vt 0.577398 0.863445
vt 0.434041 0.104550
vt 0.434041 0.071699
vt 0.458913 0.071699
vt 0.458913 0.104550
vt 0.268427 0.083815
vt 0.268427 0.127923
vt 0.249208 0.127923
vt 0.249208 0.083815
vt 0.559152 0.121121
vt 0.559152 0.165229
vt 0.540366 0.165229
vt 0.540366 0.121121
vt 0.195284 0.673172
vt 0.195284 0.629065
vt 0.214504 0.629065
vt 0.214504 0.673172
vt 0.217757 0.878511
vt 0.217757 0.834403
vt 0.236543 0.834403
vt 0.236543 0.878511
vt 0.039290 0.189188
vt 0.020504 0.189188
vt 0.020504 0.169968
vt 0.039290 0.169968
vt 0.967263 0.322217
vt 0.948477 0.322217
vt 0.948477 0.302997
vt 0.967263 0.302997
vt 0.900158 0.970001
vt 0.926550 0.970001
vt 0.926550 0.989927
vt 0.900158 0.989927
vt 0.438496 0.553528
vt 0.464887 0.553528
vt 0.464887 0.583311
vt 0.438496 0.583311
vt 0.090664 0.942881
vt 0.090664 0.969273
vt 0.070737 0.969273
vt 0.070737 0.942881
vt 0.539249 0.969972
vt 0.539249 0.996364
vt 0.509466 0.996364
vt 0.509466 0.969972
vt 0.436784 0.725407
vt 0.436784 0.755191
vt 0.416857 0.755191
vt 0.416857 0.725407
vt 0.531460 0.961096
vt 0.531460 0.990879
vt 0.511534 0.990879
vt 0.511534 0.961096
vt 0.247046 0.977890
vt 0.263390 0.977890
vt 0.263390 0.997776
vt 0.247046 0.997776
vt 0.769300 0.390268
vt 0.752956 0.390268
vt 0.752956 0.368089
vt 0.769300 0.368089
vt 0.727122 0.256470
vt 0.710779 0.256470
vt 0.710779 0.236585
vt 0.727122 0.236585
vt 0.472473 0.369822
vt 0.456130 0.369822
vt 0.456130 0.347643
vt 0.472473 0.347643
vt 0.914410 0.103636
vt 0.936589 0.103636
vt 0.936589 0.123522
vt 0.914410 0.123522
vt 0.460138 0.370606
vt 0.482317 0.370606
vt 0.482317 0.390492
vt 0.460138 0.390492
s 0
f 91/1/1 93/2/1 95/3/1 89/4/1
f 90/5/2 96/6/2 99/7/2 97/8/2
f 98/9/3 100/10/3 103/11/3 101/12/3
f 102/13/4 104/14/4 94/15/4 92/16/4
f 3/17/5 7/18/5 5/19/5 1/20/5
f 8/21/6 4/22/6 2/23/6 6/24/6
f 107/25/1 109/26/1 111/27/1 105/28/1
f 106/29/2 112/30/2 115/31/2 113/32/2
f 114/33/3 116/34/3 119/35/3 117/36/3
f 118/37/4 120/38/4 110/39/4 108/40/4
f 11/41/5 15/42/5 13/43/5 9/44/5
f 16/45/6 12/46/6 10/47/6 14/48/6
f 123/49/1 125/50/1 127/51/1 121/52/1
f 122/53/2 128/54/2 131/55/2 129/56/2
f 130/57/3 132/58/3 135/59/3 133/60/3
f 134/61/4 136/62/4 126/63/4 124/64/4
f 19/65/5 23/66/5 21/67/5 17/68/5
f 24/69/6 20/70/6 18/71/6 22/72/6
f 139/73/1 141/74/1 143/75/1 137/76/1
f 138/77/2 144/78/2 147/79/2 145/80/2
f 146/81/3 148/82/3 151/83/3 149/84/3
f 150/85/4 152/86/4 142/87/4 140/88/4
f 27/89/5 31/90/5 29/91/5 25/92/5
f 32/93/6 28/94/6 26/95/6 30/96/6
f 155/97/1 157/98/1 159/99/1 153/100/1
f 154/101/2 160/102/2 163/103/2 161/104/2
f 162/105/3 164/106/3 167/107/3 165/108/3
f 166/109/4 168/110/4 158/111/4 156/112/4
f 35/113/5 39/114/5 37/115/5 33/116/5
f 40/117/6 36/118/6 34/119/6 38/120/6
f 171/121/1 173/122/1 175/123/1 169/124/1
f 170/125/2 176/126/2 179/127/2 177/128/2
f 178/129/3 180/130/3 183/131/3 181/132/3
f 182/133/4 184/134/4 174/135/4 172/136/4
f 43/137/5 47/138/5 45/139/5 41/140/5
f 48/141/6 44/142/6 42/143/6 46/144/6
f 187/145/1 189/146/1 191/147/1 185/148/1
f 186/149/2 192/150/2 195/151/2 193/152/2
f 194/153/3 196/154/3 199/155/3 197/156/3
f 198/157/4 200/158/4 190/159/4 188/160/4
f 51/161/5 55/162/5 53/163/5 49/164/5
f 56/165/6 52/166/6 50/167/6 54/168/6
f 203/169/4 205/170/4 207/171/4 201/172/4
f 202/173/6 208/174/6 211/175/6 209/176/6
f 210/177/2 212/178/2 215/179/2 213/180/2
f 214/181/5 216/182/5 206/183/5 204/184/5
f 59/185/1 63/186/1 61/187/1 57/188/1
f 64/189/3 60/190/3 58/191/3 62/192/3
f 219/193/1 221/194/1 223/195/1 217/196/1
f 218/197/2 224/198/2 227/199/2 225/200/2
f 226/201/3 228/202/3 231/203/3 229/204/3
f 230/205/4 232/206/4 222/207/4 220/208/4
f 67/209/5 71/210/5 69/211/5 65/212/5
f 72/213/6 68/214/6 66/215/6 70/216/6
f 235/217/1 237/218/1 239/219/1 233/220/1
f 234/221/2 240/222/2 243/223/2 241/224/2
f 242/225/3 244/226/3 247/227/3 245/228/3
f 246/229/4 248/230/4 238/231/4 236/232/4
f 75/233/5 79/234/5 77/235/5 73/236/5
f 80/237/6 76/238/6 74/239/6 78/240/6
f 251/241/1 253/242/1 255/243/1 249/244/1
f 250/245/2 256/246/2 259/247/2 257/248/2
f 258/249/3 260/250/3 263/251/3 261/252/3
f 262/253/4 264/254/4 254/255/4 252/256/4
f 83/257/5 87/258/5 85/259/5 81/260/5
f 88/261/6 84/262/6 82/263/6 86/264/6
