# Blender 3.3.0
# www.blender.org
mtllib city_block7.mtl
o block7
v -46.595123 0.000000 -7.280357
v -46.595123 3.970152 -7.280357
v -46.595123 0.000000 -13.464342
v -46.595123 3.970152 -13.464342
v -43.877945 0.000000 -7.280357
v -43.877945 3.970152 -7.280357
v -43.877945 0.000000 -13.464342
v -43.877945 3.970152 -13.464342
v -47.746346 0.000001 -2.567627
v -47.746346 5.682576 -2.567627
v -47.746346 0.000001 -7.530435
v -47.746346 5.682576 -7.530435
v -43.699791 0.000001 -2.567627
v -43.699791 5.682576 -2.567627
v -43.699791 0.000001 -7.530435
v -43.699791 5.682576 -7.530435
v -47.208038 0.000000 2.921152
v -47.208038 4.437523 2.921152
v -47.208038 0.000000 -2.792267
v -47.208038 4.437523 -2.792267
v -43.917747 0.000000 2.921152
v -43.917747 4.437523 2.921152
v -43.917747 0.000000 -2.792267
v -43.917747 4.437523 -2.792267
v -47.671288 0.000000 5.811471
v -47.671288 4.816505 5.811471
v -47.671288 0.000000 2.782578
v -47.671288 4.816505 2.782578
v -43.802959 0.000000 5.811471
v -43.802959 4.816505 5.811471
v -43.802959 0.000000 2.782578
v -43.802959 4.816505 2.782578
v -47.074036 0.000000 8.802619
v -47.074036 7.546001 8.802619
v -47.074036 0.000000 5.600432
v -47.074036 7.546001 5.600432
v -43.464836 0.000000 8.802619
v -43.464836 7.546001 8.802619
v -43.464836 0.000000 5.600432
v -43.464836 7.546001 5.600432
v -47.789116 0.000000 11.587787
v -47.789116 4.929180 11.587787
v -47.789116 0.000000 8.681590
v -47.789116 4.929180 8.681590
v -45.639641 0.000000 11.587787
v -45.639641 4.929180 11.587787
v -45.639641 0.000000 8.681590
v -45.639641 4.929180 8.681590
v -48.729687 0.000000 13.297311
v -48.729687 5.569526 13.297311
v -48.729687 0.000000 11.315309
v -48.729687 5.569526 11.315309
v -43.570244 0.000000 13.297311
v -43.570244 5.569526 13.297311
v -43.570244 0.000000 11.315309
v -43.570244 5.569526 11.315309
v -49.148258 0.000000 20.020073
v -49.148258 3.468671 20.020073
v -49.148258 0.000000 13.205340
v -49.148258 3.468671 13.205340
v -45.978420 0.000000 20.020073
v -45.978420 3.468671 20.020073
v -45.978420 0.000000 13.205340
v -45.978420 3.468671 13.205340
v -48.111565 0.000000 24.322365
v -48.111565 9.571870 24.322365
v -48.111565 0.000000 19.800056
v -48.111565 9.571870 19.800056
v -43.772331 0.000000 24.322365
v -43.772331 9.571870 24.322365
v -43.772331 0.000000 19.800056
v -43.772331 9.571870 19.800056
v -47.297272 0.000000 29.817940
v -47.297272 8.746984 29.817940
v -47.297272 0.000000 24.112465
v -47.297272 8.746984 24.112465
v -43.918045 0.000000 29.817940
v -43.918045 8.746984 29.817940
v -43.918045 0.000000 24.112465
v -43.918045 8.746984 24.112465
v -47.568420 -0.000001 35.078278
v -47.568420 10.319070 35.078278
v -47.568420 -0.000001 29.803871
v -47.568420 10.319070 29.803871
v -43.593353 -0.000001 35.078278
v -43.593353 10.319070 35.078278
v -43.593353 -0.000001 29.803871
v -43.593353 10.319070 29.803871
v -46.595123 0.000000 -13.464342
v -46.595123 0.000000 -13.464342
v -46.595123 0.000000 -7.280357
v -46.595123 0.000000 -7.280357
v -46.595123 3.970152 -7.280357
v -46.595123 3.970152 -7.280357
v -46.595123 3.970152 -13.464342
v -46.595123 3.970152 -13.464342
v -43.877945 0.000000 -13.464342
v -43.877945 0.000000 -13.464342
v -43.877945 3.970152 -13.464342
v -43.877945 3.970152 -13.464342
v -43.877945 0.000000 -7.280357
v -43.877945 0.000000 -7.280357
v -43.877945 3.970152 -7.280357
v -43.877945 3.970152 -7.280357
v -47.746346 0.000001 -7.530435
v -47.746346 0.000001 -7.530435
v -47.746346 0.000001 -2.567627
v -47.746346 0.000001 -2.567627
v -47.746346 5.682576 -2.567627
v -47.746346 5.682576 -2.567627
v -47.746346 5.682576 -7.530435
v -47.746346 5.682576 -7.530435
v -43.699791 0.000001 -7.530435
v -43.699791 0.000001 -7.530435
v -43.699791 5.682576 -7.530435
v -43.699791 5.682576 -7.530435
v -43.699791 0.000001 -2.567627
v -43.699791 0.000001 -2.567627
v -43.699791 5.682576 -2.567627
v -43.699791 5.682576 -2.567627
v -47.208038 0.000000 -2.792267
v -47.208038 0.000000 -2.792267
v -47.208038 0.000000 2.921152
v -47.208038 0.000000 2.921152
v -47.208038 4.437523 2.921152
v -47.208038 4.437523 2.921152
v -47.208038 4.437523 -2.792267
v -47.208038 4.437523 -2.792267
v -43.917747 0.000000 -2.792267
v -43.917747 0.000000 -2.792267
v -43.917747 4.437523 -2.792267
v -43.917747 4.437523 -2.792267
v -43.917747 0.000000 2.921152
v -43.917747 0.000000 2.921152
v -43.917747 4.437523 2.921152
v -43.917747 4.437523 2.921152
v -47.671288 0.000000 2.782578
v -47.671288 0.000000 2.782578
v -47.671288 0.000000 5.811471
v -47.671288 0.000000 5.811471
v -47.671288 4.816505 5.811471
v -47.671288 4.816505 5.811471
v -47.671288 4.816505 2.782578
v -47.671288 4.816505 2.782578
v -43.802959 0.000000 2.782578
v -43.802959 0.000000 2.782578
v -43.802959 4.816505 2.782578
v -43.802959 4.816505 2.782578
v -43.802959 0.000000 5.811471
v -43.802959 0.000000 5.811471
v -43.802959 4.816505 5.811471
v -43.802959 4.816505 5.811471
v -47.074036 0.000000 5.600432
v -47.074036 0.000000 5.600432
v -47.074036 0.000000 8.802619
v -47.074036 0.000000 8.802619
v -47.074036 7.546001 8.802619
v -47.074036 7.546001 8.802619
v -47.074036 7.546001 5.600432
v -47.074036 7.546001 5.600432
v -43.464836 0.000000 5.600432
v -43.464836 0.000000 5.600432
v -43.464836 7.546001 5.600432
v -43.464836 7.546001 5.600432
v -43.464836 0.000000 8.802619
v -43.464836 0.000000 8.802619
v -43.464836 7.546001 8.802619
v -43.464836 7.546001 8.802619
v -47.789116 0.000000 8.681590
v -47.789116 0.000000 8.681590
v -47.789116 0.000000 11.587787
v -47.789116 0.000000 11.587787
v -47.789116 4.929180 11.587787
v -47.789116 4.929180 11.587787
v -47.789116 4.929180 8.681590
v -47.789116 4.929180 8.681590
v -45.639641 0.000000 8.681590
v -45.639641 0.000000 8.681590
v -45.639641 4.929180 8.681590
v -45.639641 4.929180 8.681590
v -45.639641 0.000000 11.587787
v -45.639641 0.000000 11.587787
v -45.639641 4.929180 11.587787
v -45.639641 4.929180 11.587787
v -48.729687 0.000000 11.315309
v -48.729687 0.000000 11.315309
v -48.729687 0.000000 13.297311
v -48.729687 0.000000 13.297311
v -48.729687 5.569526 13.297311
v -48.729687 5.569526 13.297311
v -48.729687 5.569526 11.315309
v -48.729687 5.569526 11.315309
v -43.570244 0.000000 11.315309
v -43.570244 0.000000 11.315309
v -43.570244 5.569526 11.315309
v -43.570244 5.569526 11.315309
v -43.570244 0.000000 13.297311
v -43.570244 0.000000 13.297311
v -43.570244 5.569526 13.297311
v -43.570244 5.569526 13.297311
v -49.148258 0.000000 13.205340
v -49.148258 0.000000 13.205340
v -49.148258 0.000000 20.020073
v -49.148258 0.000000 20.020073
v -49.148258 3.468671 20.020073
v -49.148258 3.468671 20.020073
v -49.148258 3.468671 13.205340
v -49.148258 3.468671 13.205340
v -45.978420 0.000000 13.205340
v -45.978420 0.000000 13.205340
v -45.978420 3.468671 13.205340
v -45.978420 3.468671 13.205340
v -45.978420 0.000000 20.020073
v -45.978420 0.000000 20.020073
v -45.978420 3.468671 20.020073
v -45.978420 3.468671 20.020073
v -48.111565 0.000000 19.800056
v -48.111565 0.000000 19.800056
v -48.111565 0.000000 24.322365
v -48.111565 0.000000 24.322365
v -48.111565 9.571870 24.322365
v -48.111565 9.571870 24.322365
v -48.111565 9.571870 19.800056
v -48.111565 9.571870 19.800056
v -43.772331 0.000000 19.800056
v -43.772331 0.000000 19.800056
v -43.772331 9.571870 19.800056
v -43.772331 9.571870 19.800056
v -43.772331 0.000000 24.322365
v -43.772331 0.000000 24.322365
v -43.772331 9.571870 24.322365
v -43.772331 9.571870 24.322365
v -47.297272 0.000000 24.112465
v -47.297272 0.000000 24.112465
v -47.297272 0.000000 29.817940
v -47.297272 0.000000 29.817940
v -47.297272 8.746984 29.817940
v -47.297272 8.746984 29.817940
v -47.297272 8.746984 24.112465
v -47.297272 8.746984 24.112465
v -43.918045 0.000000 24.112465
v -43.918045 0.000000 24.112465
v -43.918045 8.746984 24.112465
v -43.918045 8.746984 24.112465
v -43.918045 0.000000 29.817940
v -43.918045 0.000000 29.817940
v -43.918045 8.746984 29.817940
v -43.918045 8.746984 29.817940
v -47.568420 -0.000001 29.803871
v -47.568420 -0.000001 29.803871
v -47.568420 -0.000001 35.078278
v -47.568420 -0.000001 35.078278
v -47.568420 10.319070 35.078278
v -47.568420 10.319070 35.078278
v -47.568420 10.319070 29.803871
v -47.568420 10.319070 29.803871
v -43.593353 -0.000001 29.803871
v -43.593353 -0.000001 29.803871
v -43.593353 10.319070 29.803871
v -43.593353 10.319070 29.803871
v -43.593353 -0.000001 35.078278
v -43.593353 -0.000001 35.078278
v -43.593353 10.319070 35.078278
v -43.593353 10.319070 35.078278
vn -1.0000 -0.0000 -0.0000
vn -0.0000 -0.0000 -1.0000
vn 1.0000 -0.0000 -0.0000
vn -0.0000 -0.0000 1.0000
vn -0.0000 -1.0000 -0.0000
vn -0.0000 1.0000 -0.0000
vt 0.553051 0.421842
vt 0.078810 0.679872
vt 0.590006 0.421842
vt 0.078810 0.716827
vt 0.553051 0.438079
vt 0.095048 0.679872
vt 0.590006 0.438079
vt 0.095048 0.716827
vt 0.867268 0.176232
vt 0.846997 0.960884
vt 0.867268 0.146575
vt 0.846997 0.931227
vt 0.891449 0.176232
vt 0.822815 0.960884
vt 0.891449 0.146575
vt 0.822815 0.931227
vt 0.939508 0.051836
vt 0.881061 0.535739
vt 0.939508 0.085978
vt 0.881061 0.569881
vt 0.919846 0.051836
vt 0.900723 0.535739
vt 0.919846 0.085978
vt 0.900723 0.569881
vt 0.988407 0.495214
vt 0.727232 0.382314
vt 1.006508 0.495214
vt 0.727232 0.364214
vt 0.988407 0.518330
vt 0.704116 0.382314
vt 1.006508 0.518330
vt 0.704116 0.364214
vt 0.533131 0.672840
vt 0.825386 0.374489
vt 0.533131 0.653704
vt 0.825386 0.355353
vt 0.554699 0.672840
vt 0.803818 0.374489
vt 0.554699 0.653704
vt 0.803818 0.355353
vt 0.388781 0.853521
vt 0.596667 0.717283
vt 0.371414 0.853521
vt 0.579300 0.717283
vt 0.388781 0.840676
vt 0.596667 0.730127
vt 0.371414 0.840676
vt 0.579300 0.730127
vt 0.974060 0.102688
vt 0.616343 0.594078
vt 0.974060 0.114532
vt 0.616343 0.582234
vt 0.943228 0.102688
vt 0.585511 0.594078
vt 0.943228 0.114532
vt 0.585511 0.582234
vt 0.910718 0.772477
vt 0.822539 0.443799
vt 0.910718 0.813201
vt 0.781816 0.443799
vt 0.891775 0.772477
vt 0.822539 0.462741
vt 0.891775 0.813201
vt 0.781816 0.462741
vt 0.968918 0.793802
vt 0.066214 0.196339
vt 0.968918 0.820827
vt 0.066214 0.223364
vt 0.942988 0.793802
vt 0.092144 0.196339
vt 0.942988 0.820827
vt 0.092144 0.223364
vt 0.666382 0.581151
vt 0.329487 0.122859
vt 0.666382 0.615245
vt 0.363582 0.122859
vt 0.646188 0.581151
vt 0.329487 0.102665
vt 0.646188 0.615245
vt 0.363582 0.102665
vt 0.165275 0.865086
vt 0.334875 0.339401
vt 0.165275 0.896604
vt 0.334875 0.370920
vt 0.141521 0.865086
vt 0.358630 0.339401
vt 0.141521 0.896604
vt 0.358630 0.370920
vt 0.040298 0.324583
vt 0.874183 0.332577
vt 0.077252 0.324583
vt 0.188190 0.928281
vt 0.077252 0.348308
vt 0.164465 0.928281
vt 0.040298 0.348308
vt 0.874183 0.356302
vt 0.857946 0.332577
vt 0.294216 0.775505
vt 0.857946 0.356302
vt 0.294216 0.799230
vt 0.257262 0.775505
vt 0.188190 0.944518
vt 0.257262 0.799230
vt 0.164465 0.944518
vt 0.558965 0.617353
vt 0.213105 0.960999
vt 0.588621 0.617353
vt 0.612032 0.114880
vt 0.588621 0.651311
vt 0.612032 0.148838
vt 0.558965 0.651311
vt 0.213105 0.994956
vt 0.188924 0.960999
vt 0.829884 0.075799
vt 0.188924 0.994956
vt 0.795926 0.075799
vt 0.829884 0.046142
vt 0.636213 0.114880
vt 0.795926 0.046142
vt 0.636213 0.148838
vt 0.646755 0.715068
vt 0.903885 -0.008040
vt 0.680897 0.715068
vt 0.848919 0.555816
vt 0.680897 0.741586
vt 0.822402 0.555816
vt 0.646755 0.741586
vt 0.903885 0.018478
vt 0.884223 -0.008040
vt 0.576982 0.834649
vt 0.884223 0.018478
vt 0.550464 0.834649
vt 0.576982 0.800507
vt 0.848919 0.575478
vt 0.550464 0.800507
vt 0.822402 0.575478
vt 1.011140 0.916560
vt 0.050598 0.769348
vt 1.011140 0.934660
vt 0.672269 0.645393
vt 0.982358 0.934660
vt 0.643486 0.645393
vt 0.982358 0.916560
vt 0.050598 0.798130
vt 0.027482 0.769348
vt 0.910346 0.662224
vt 0.027482 0.798130
vt 0.881563 0.662224
vt 0.910346 0.644124
vt 0.672269 0.668509
vt 0.881563 0.644124
vt 0.643486 0.668509
vt 0.454289 0.454066
vt 0.537817 0.632556
vt 0.435154 0.454066
vt 0.526052 0.611149
vt 0.435154 0.408973
vt 0.526052 0.656242
vt 0.454289 0.408973
vt 0.537817 0.677650
vt 0.516250 0.632556
vt 0.062110 0.599322
vt 0.516250 0.677650
vt 0.017017 0.599322
vt 0.062110 0.580187
vt 0.547620 0.611149
vt 0.017017 0.580187
vt 0.547620 0.656242
vt 0.638873 0.583920
vt 0.954176 0.220654
vt 0.638873 0.601286
vt 0.477100 0.500996
vt 0.609418 0.601286
vt 0.447645 0.500996
vt 0.609418 0.583920
vt 0.924721 0.220654
vt 0.954176 0.207809
vt 0.355647 0.088477
vt 0.924721 0.207809
vt 0.326191 0.088477
vt 0.355647 0.071110
vt 0.477100 0.513841
vt 0.326191 0.071110
vt 0.447645 0.513841
vt 0.060807 0.875436
vt 0.764212 0.970955
vt 0.060807 0.863591
vt 0.334764 -0.005683
vt 0.094090 0.863591
vt 0.301482 -0.005683
vt 0.094090 0.875436
vt 0.797494 0.970955
vt 0.764212 1.001787
vt 0.218371 0.872324
vt 0.797494 1.001787
vt 0.251653 0.872324
vt 0.218371 0.884168
vt 0.334764 0.025149
vt 0.251653 0.884168
vt 0.301482 0.025149
vt 0.808097 0.450613
vt 0.632602 0.372518
vt 0.808097 0.409889
vt 0.434467 0.892213
vt 0.828825 0.409889
vt 0.413739 0.892213
vt 0.828825 0.450613
vt 0.632602 0.393246
vt 0.613659 0.372518
vt 0.682909 0.795749
vt 0.613659 0.393246
vt 0.662181 0.795749
vt 0.682909 0.755026
vt 0.434467 0.911155
vt 0.662181 0.755026
vt 0.413739 0.911155
vt 0.342989 0.044281
vt 0.057925 0.471591
vt 0.370013 0.044281
vt 0.398235 0.208061
vt 0.370013 0.101480
vt 0.455435 0.208061
vt 0.342989 0.101480
vt 0.057925 0.528791
vt 0.031994 0.471591
vt 0.377297 0.946825
vt 0.031994 0.528791
vt 0.377297 1.004024
vt 0.350273 0.946825
vt 0.398235 0.182131
vt 0.350273 1.004024
vt 0.455435 0.182131
vt 0.807972 0.901170
vt 0.420295 0.928175
vt 0.807972 0.935264
vt 0.303626 0.472640
vt 0.755702 0.935264
vt 0.251356 0.472640
vt 0.755702 0.901170
vt 0.420295 0.980445
vt 0.400101 0.928175
vt 0.922459 0.880295
vt 0.400101 0.980445
vt 0.870189 0.880295
vt 0.922459 0.846201
vt 0.303626 0.492834
vt 0.870189 0.846201
vt 0.251356 0.492834
vt 0.607414 0.169460
vt 0.298110 0.070268
vt 0.638932 0.169460
vt 0.397775 -0.010209
vt 0.638932 0.231124
vt 0.336110 -0.010209
vt 0.607414 0.231124
vt 0.236445 0.070268
vt 0.298110 0.046514
vt 0.022861 0.815889
vt 0.236445 0.046514
vt 0.022861 0.877554
vt -0.008658 0.815889
vt 0.397775 0.013546
vt -0.008658 0.877554
vt 0.336110 0.013546
s 0
f 91/91/1 93/93/1 95/95/1 89/89/1
f 90/90/2 96/96/2 99/99/2 97/97/2
f 98/98/3 100/100/3 103/103/3 101/101/3
f 102/102/4 104/104/4 94/94/4 92/92/4
f 3/3/5 7/7/5 5/5/5 1/1/5
f 8/8/6 4/4/6 2/2/6 6/6/6
f 107/107/1 109/109/1 111/111/1 105/105/1
f 106/106/2 112/112/2 115/115/2 113/113/2
f 114/114/3 116/116/3 119/119/3 117/117/3
f 118/118/4 120/120/4 110/110/4 108/108/4
f 11/11/5 15/15/5 13/13/5 9/9/5
f 16/16/6 12/12/6 10/10/6 14/14/6
f 123/123/1 125/125/1 127/127/1 121/121/1
f 122/122/2 128/128/2 131/131/2 129/129/2
f 130/130/3 132/132/3 135/135/3 133/133/3
f 134/134/4 136/136/4 126/126/4 124/124/4
f 19/19/5 23/23/5 21/21/5 17/17/5
f 24/24/6 20/20/6 18/18/6 22/22/6
f 139/139/1 141/141/1 143/143/1 137/137/1
f 138/138/2 144/144/2 147/147/2 145/145/2
f 146/146/3 148/148/3 151/151/3 149/149/3
f 150/150/4 152/152/4 142/142/4 140/140/4
f 27/27/5 31/31/5 29/29/5 25/25/5
f 32/32/6 28/28/6 26/26/6 30/30/6
f 155/155/1 157/157/1 159/159/1 153/153/1
f 154/154/2 160/160/2 163/163/2 161/161/2
f 162/162/3 164/164/3 167/167/3 165/165/3
f 166/166/4 168/168/4 158/158/4 156/156/4
f 35/35/5 39/39/5 37/37/5 33/33/5
f 40/40/6 36/36/6 34/34/6 38/38/6
f 171/171/1 173/173/1 175/175/1 169/169/1
f 170/170/2 176/176/2 179/179/2 177/177/2
f 178/178/3 180/180/3 183/183/3 181/181/3
f 182/182/4 184/184/4 174/174/4 172/172/4
f 43/43/5 47/47/5 45/45/5 41/41/5
f 48/48/6 44/44/6 42/42/6 46/46/6
f 187/187/1 189/189/1 191/191/1 185/185/1
f 186/186/2 192/192/2 195/195/2 193/193/2
f 194/194/3 196/196/3 199/199/3 197/197/3
f 198/198/4 200/200/4 190/190/4 188/188/4
f 51/51/5 55/55/5 53/53/5 49/49/5
f 56/56/6 52/52/6 50/50/6 54/54/6
f 203/203/1 205/205/1 207/207/1 201/201/1
f 202/202/2 208/208/2 211/211/2 209/209/2
f 210/210/3 212/212/3 215/215/3 213/213/3
f 214/214/4 216/216/4 206/206/4 204/204/4
f 59/59/5 63/63/5 61/61/5 57/57/5
f 64/64/6 60/60/6 58/58/6 62/62/6
f 219/219/1 221/221/1 223/223/1 217/217/1
f 218/218/2 224/224/2 227/227/2 225/225/2
f 226/226/3 228/228/3 231/231/3 229/229/3
f 230/230/4 232/232/4 222/222/4 220/220/4
f 67/67/5 71/71/5 69/69/5 65/65/5
f 72/72/6 68/68/6 66/66/6 70/70/6
f 235/235/1 237/237/1 239/239/1 233/233/1
f 234/234/2 240/240/2 243/243/2 241/241/2
f 242/242/3 244/244/3 247/247/3 245/245/3
f 246/246/4 248/248/4 238/238/4 236/236/4
f 75/75/5 79/79/5 77/77/5 73/73/5
f 80/80/6 76/76/6 74/74/6 78/78/6
f 251/251/1 253/253/1 255/255/1 249/249/1
f 250/250/2 256/256/2 259/259/2 257/257/2
f 258/258/3 260/260/3 263/263/3 261/261/3
f 262/262/4 264/264/4 254/254/4 252/252/4
f 83/83/5 87/87/5 85/85/5 81/81/5
f 88/88/6 84/84/6 82/82/6 86/86/6
