# Blender 3.6.2
# www.blender.org
mtllib city_block11.mtl
o block11
v -20.579113 0.000000 -22.757809
v -20.579113 7.165958 -22.757809
v -20.579113 0.000000 -27.012119
v -20.579113 7.165958 -27.012119
v -12.072403 0.000000 -22.757809
v -12.072403 7.165958 -22.757809
v -12.072403 0.000000 -27.012119
v -12.072403 7.165958 -27.012119
v -12.413597 0.000000 -22.403461
v -12.413597 8.379944 -22.403461
v -12.413597 0.000000 -26.061596
v -12.413597 8.379944 -26.061596
v -5.194756 0.000000 -22.403461
v -5.194756 8.379944 -22.403461
v -5.194756 0.000000 -26.061596
v -5.194756 8.379944 -26.061596
v -5.437126 0.000000 -22.694405
v -5.437126 5.642998 -22.694405
v -5.437126 0.000000 -26.865204
v -5.437126 5.642998 -26.865204
v -0.997051 0.000000 -22.694405
v -0.997051 5.642998 -22.694405
v -0.997051 0.000000 -26.865204
v -0.997051 5.642998 -26.865204
v -1.196270 0.000000 -22.439190
v -1.196270 6.052238 -22.439190
v -1.196270 0.000000 -25.819164
v -1.196270 6.052238 -25.819164
v 3.709867 0.000000 -22.439190
v 3.709867 6.052238 -22.439190
v 3.709867 0.000000 -25.819164
v 3.709867 6.052238 -25.819164
v 3.657120 0.000000 -22.704647
v 3.657120 7.867517 -22.704647
v 3.657120 0.000000 -28.687099
v 3.657120 7.867517 -28.687099
v 8.533516 0.000000 -22.704647
v 8.533516 7.867517 -22.704647
v 8.533516 0.000000 -28.687099
v 8.533516 7.867517 -28.687099
v 8.449787 0.000000 -23.344917
v 8.449787 6.839512 -23.344917
v 8.449787 0.000000 -27.589851
v 8.449787 6.839512 -27.589851
v 12.226398 0.000000 -23.344917
v 12.226398 6.839512 -23.344917
v 12.226398 0.000000 -27.589851
v 12.226398 6.839512 -27.589851
v 12.038979 0.000002 -22.912346
v 12.038979 7.575078 -22.912346
v 12.038979 0.000002 -26.779282
v 12.038979 7.575078 -26.779282
v 15.637589 0.000002 -22.912346
v 15.637589 7.575078 -22.912346
v 15.637589 0.000002 -26.779282
v 15.637589 7.575078 -26.779282
v 15.491451 0.000000 -23.759575
v 15.491451 5.639925 -23.759575
v 15.491451 0.000000 -26.547508
v 15.491451 5.639925 -26.547508
v 20.546528 0.000000 -23.759575
v 20.546528 5.639925 -23.759575
v 20.546528 0.000000 -26.547508
v 20.546528 5.639925 -26.547508
v 20.530399 0.000000 -23.545502
v 20.530399 6.173393 -23.545502
v 20.530399 0.000000 -26.914490
v 20.530399 6.173393 -26.914490
v 23.284092 0.000000 -23.545502
v 23.284092 6.173393 -23.545502
v 23.284092 0.000000 -26.914490
v 23.284092 6.173393 -26.914490
v 23.234253 0.000000 -23.090946
v 23.234253 6.774243 -23.090946
v 23.234253 0.000000 -26.492336
v 23.234253 6.774243 -26.492336
v 26.724655 0.000000 -23.090946
v 26.724655 6.774243 -23.090946
v 26.724655 0.000000 -26.492336
v 26.724655 6.774243 -26.492336
v -20.579113 0.000000 -27.012119
v -20.579113 0.000000 -27.012119
v -20.579113 0.000000 -22.757809
v -20.579113 0.000000 -22.757809
v -20.579113 7.165958 -22.757809
v -20.579113 7.165958 -22.757809
v -20.579113 7.165958 -27.012119
v -20.579113 7.165958 -27.012119
v -12.072403 0.000000 -27.012119
v -12.072403 0.000000 -27.012119
v -12.072403 7.165958 -27.012119
v -12.072403 7.165958 -27.012119
v -12.072403 0.000000 -22.757809
v -12.072403 0.000000 -22.757809
v -12.072403 7.165958 -22.757809
v -12.072403 7.165958 -22.757809
v -12.413597 0.000000 -26.061596
v -12.413597 0.000000 -26.061596
v -12.413597 0.000000 -22.403461
v -12.413597 0.000000 -22.403461
v -12.413597 8.379944 -22.403461
v -12.413597 8.379944 -22.403461
v -12.413597 8.379944 -26.061596
v -12.413597 8.379944 -26.061596
v -5.194756 0.000000 -26.061596
v -5.194756 0.000000 -26.061596
v -5.194756 8.379944 -26.061596
v -5.194756 8.379944 -26.061596
v -5.194756 0.000000 -22.403461
v -5.194756 0.000000 -22.403461
v -5.194756 8.379944 -22.403461
v -5.194756 8.379944 -22.403461
v -5.437126 0.000000 -26.865204
v -5.437126 0.000000 -26.865204
v -5.437126 0.000000 -22.694405
v -5.437126 0.000000 -22.694405
v -5.437126 5.642998 -22.694405
v -5.437126 5.642998 -22.694405
v -5.437126 5.642998 -26.865204
v -5.437126 5.642998 -26.865204
v -0.997051 0.000000 -26.865204
v -0.997051 0.000000 -26.865204
v -0.997051 5.642998 -26.865204
v -0.997051 5.642998 -26.865204
v -0.997051 0.000000 -22.694405
v -0.997051 0.000000 -22.694405
v -0.997051 5.642998 -22.694405
v -0.997051 5.642998 -22.694405
v -1.196270 0.000000 -25.819164
v -1.196270 0.000000 -25.819164
v -1.196270 0.000000 -22.439190
v -1.196270 0.000000 -22.439190
v -1.196270 6.052238 -22.439190
v -1.196270 6.052238 -22.439190
v -1.196270 6.052238 -25.819164
v -1.196270 6.052238 -25.819164
v 3.709867 0.000000 -25.819164
v 3.709867 0.000000 -25.819164
v 3.709867 6.052238 -25.819164
v 3.709867 6.052238 -25.819164
v 3.709867 0.000000 -22.439190
v 3.709867 0.000000 -22.439190
v 3.709867 6.052238 -22.439190
v 3.709867 6.052238 -22.439190
v 3.657120 0.000000 -28.687099
v 3.657120 0.000000 -28.687099
v 3.657120 0.000000 -22.704647
v 3.657120 0.000000 -22.704647
v 3.657120 7.867517 -22.704647
v 3.657120 7.867517 -22.704647
v 3.657120 7.867517 -28.687099
v 3.657120 7.867517 -28.687099
v 8.533516 0.000000 -28.687099
v 8.533516 0.000000 -28.687099
v 8.533516 7.867517 -28.687099
v 8.533516 7.867517 -28.687099
v 8.533516 0.000000 -22.704647
v 8.533516 0.000000 -22.704647
v 8.533516 7.867517 -22.704647
v 8.533516 7.867517 -22.704647
v 8.449787 0.000000 -27.589851
v 8.449787 0.000000 -27.589851
v 8.449787 0.000000 -23.344917
v 8.449787 0.000000 -23.344917
v 8.449787 6.839512 -23.344917
v 8.449787 6.839512 -23.344917
v 8.449787 6.839512 -27.589851
v 8.449787 6.839512 -27.589851
v 12.226398 0.000000 -27.589851
v 12.226398 0.000000 -27.589851
v 12.226398 6.839512 -27.589851
v 12.226398 6.839512 -27.589851
v 12.226398 0.000000 -23.344917
v 12.226398 0.000000 -23.344917
v 12.226398 6.839512 -23.344917
v 12.226398 6.839512 -23.344917
v 12.038979 0.000002 -26.779282
v 12.038979 0.000002 -26.779282
v 12.038979 0.000002 -22.912346
v 12.038979 0.000002 -22.912346
v 12.038979 7.575078 -22.912346
v 12.038979 7.575078 -22.912346
v 12.038979 7.575078 -26.779282
v 12.038979 7.575078 -26.779282
v 15.637589 0.000002 -26.779282
v 15.637589 0.000002 -26.779282
v 15.637589 7.575078 -26.779282
v 15.637589 7.575078 -26.779282
v 15.637589 0.000002 -22.912346
v 15.637589 0.000002 -22.912346
v 15.637589 7.575078 -22.912346
v 15.637589 7.575078 -22.912346
v 15.491451 0.000000 -26.547508
v 15.491451 0.000000 -26.547508
v 15.491451 0.000000 -23.759575
v 15.491451 0.000000 -23.759575
v 15.491451 5.639925 -23.759575
v 15.491451 5.639925 -23.759575
v 15.491451 5.639925 -26.547508
v 15.491451 5.639925 -26.547508
v 20.546528 0.000000 -26.547508
v 20.546528 0.000000 -26.547508
v 20.546528 5.639925 -26.547508
v 20.546528 5.639925 -26.547508
v 20.546528 0.000000 -23.759575
v 20.546528 0.000000 -23.759575
v 20.546528 5.639925 -23.759575
v 20.546528 5.639925 -23.759575
v 20.530399 0.000000 -26.914490
v 20.530399 0.000000 -26.914490
v 20.530399 0.000000 -23.545502
v 20.530399 0.000000 -23.545502
v 20.530399 6.173393 -23.545502
v 20.530399 6.173393 -23.545502
v 20.530399 6.173393 -26.914490
v 20.530399 6.173393 -26.914490
v 23.284092 0.000000 -26.914490
v 23.284092 0.000000 -26.914490
v 23.284092 6.173393 -26.914490
v 23.284092 6.173393 -26.914490
v 23.284092 0.000000 -23.545502
v 23.284092 0.000000 -23.545502
v 23.284092 6.173393 -23.545502
v 23.284092 6.173393 -23.545502
v 23.234253 0.000000 -26.492336
v 23.234253 0.000000 -26.492336
v 23.234253 0.000000 -23.090946
v 23.234253 0.000000 -23.090946
v 23.234253 6.774243 -23.090946
v 23.234253 6.774243 -23.090946
v 23.234253 6.774243 -26.492336
v 23.234253 6.774243 -26.492336
v 26.724655 0.000000 -26.492336
v 26.724655 0.000000 -26.492336
v 26.724655 6.774243 -26.492336
v 26.724655 6.774243 -26.492336
v 26.724655 0.000000 -23.090946
v 26.724655 0.000000 -23.090946
v 26.724655 6.774243 -23.090946
v 26.724655 6.774243 -23.090946
vn -1.0000 -0.0000 -0.0000
vn -0.0000 -0.0000 -1.0000
vn 1.0000 -0.0000 -0.0000
vn -0.0000 -0.0000 1.0000
vn -0.0000 -1.0000 -0.0000
vn -0.0000 1.0000 -0.0000
vt 0.236967 0.505298
vt 0.236967 0.548120
vt 0.211544 0.548120
vt 0.211544 0.505298
vt 0.538379 0.606483
vt 0.581201 0.606483
vt 0.581201 0.657317
vt 0.538379 0.657317
vt 0.781812 0.956681
vt 0.781812 0.999503
vt 0.756389 0.999503
vt 0.756389 0.956681
vt 0.369467 0.906265
vt 0.412290 0.906265
vt 0.412290 0.957099
vt 0.369467 0.957099
vt 0.114632 0.804597
vt 0.114632 0.855431
vt 0.089209 0.855431
vt 0.089209 0.804597
vt 0.173446 0.457522
vt 0.173446 0.406687
vt 0.198869 0.406687
vt 0.198869 0.457522
vt 0.594454 0.947683
vt 0.594454 0.997760
vt 0.572594 0.997760
vt 0.572594 0.947683
vt 0.723442 0.884883
vt 0.723442 0.934960
vt 0.680304 0.934960
vt 0.680304 0.884883
vt 0.879690 0.305493
vt 0.829613 0.305493
vt 0.829613 0.283633
vt 0.879690 0.283633
vt 0.678375 0.122219
vt 0.678375 0.172296
vt 0.635237 0.172296
vt 0.635237 0.122219
vt -0.004839 0.118063
vt 0.038299 0.118063
vt 0.038299 0.139923
vt -0.004839 0.139923
vt 0.957568 0.103425
vt 1.000706 0.103425
vt 1.000706 0.125285
vt 0.957568 0.125285
vt 0.682800 0.820886
vt 0.682800 0.854608
vt 0.657876 0.854608
vt 0.657876 0.820886
vt 0.145311 0.715998
vt 0.145311 0.749720
vt 0.118778 0.749720
vt 0.118778 0.715998
vt 0.633274 0.449885
vt 0.599552 0.449885
vt 0.599552 0.424962
vt 0.633274 0.424962
vt 0.216739 0.130529
vt 0.183018 0.130529
vt 0.183018 0.103996
vt 0.216739 0.103996
vt 0.133729 0.742800
vt 0.133729 0.769332
vt 0.108806 0.769332
vt 0.108806 0.742800
vt 0.815551 0.187838
vt 0.815551 0.161305
vt 0.840475 0.161305
vt 0.840475 0.187838
vt 0.317176 0.803129
vt 0.317176 0.839296
vt 0.296978 0.839296
vt 0.296978 0.803129
vt 0.669248 0.900116
vt 0.705415 0.900116
vt 0.705415 0.929434
vt 0.669248 0.929434
vt 0.935077 0.649713
vt 0.935077 0.685880
vt 0.914879 0.685880
vt 0.914879 0.649713
vt 0.982630 0.811675
vt 0.982630 0.775508
vt 1.011948 0.775508
vt 1.011948 0.811675
vt 0.491607 0.386056
vt 0.491607 0.415374
vt 0.471409 0.415374
vt 0.471409 0.386056
vt 0.360755 0.715836
vt 0.390073 0.715836
vt 0.390073 0.736034
vt 0.360755 0.736034
vt 0.410806 0.712055
vt 0.410806 0.759070
vt 0.375056 0.759070
vt 0.375056 0.712055
vt 0.668730 0.052569
vt 0.668730 0.099584
vt 0.639590 0.099584
vt 0.639590 0.052569
vt 0.217195 0.169990
vt 0.217195 0.217004
vt 0.181445 0.217004
vt 0.181445 0.169990
vt 0.396852 0.936617
vt 0.396852 0.983632
vt 0.367712 0.983632
vt 0.367712 0.936617
vt 0.257933 0.601772
vt 0.257933 0.630912
vt 0.222183 0.630912
vt 0.222183 0.601772
vt 0.108869 0.958867
vt 0.108869 0.988007
vt 0.073119 0.988007
vt 0.073119 0.958867
vt 1.001230 0.374988
vt 1.001230 0.415860
vt 0.975863 0.415860
vt 0.975863 0.374988
vt 0.891892 0.416295
vt 0.891892 0.457166
vt 0.869324 0.457166
vt 0.869324 0.416295
vt 0.209938 0.184496
vt 0.209938 0.225367
vt 0.184571 0.225367
vt 0.184571 0.184496
vt 0.691975 0.884946
vt 0.651103 0.884946
vt 0.651103 0.862377
vt 0.691975 0.862377
vt 0.894109 0.109988
vt 0.871541 0.109988
vt 0.871541 0.084621
vt 0.894109 0.084621
vt 0.046643 0.870291
vt 0.046643 0.892859
vt 0.021276 0.892859
vt 0.021276 0.870291
vt 0.454912 1.003317
vt 0.454912 0.958049
vt 0.478020 0.958049
vt 0.478020 1.003317
vt 0.893678 0.626293
vt 0.893678 0.671560
vt 0.872173 0.671560
vt 0.872173 0.626293
vt 0.787583 0.743168
vt 0.787583 0.788436
vt 0.764475 0.788436
vt 0.764475 0.743168
vt 0.745857 0.295019
vt 0.745857 0.249752
vt 0.767361 0.249752
vt 0.767361 0.295019
vt 0.172809 0.468736
vt 0.194313 0.468736
vt 0.194313 0.491844
vt 0.172809 0.491844
vt 0.792733 0.206643
vt 0.792733 0.228148
vt 0.769625 0.228148
vt 0.769625 0.206643
vt 0.123805 0.911399
vt 0.123805 0.877696
vt 0.140465 0.877696
vt 0.140465 0.911399
vt 0.237984 0.097983
vt 0.237984 0.064279
vt 0.268192 0.064279
vt 0.268192 0.097983
vt 0.749463 0.857903
vt 0.749463 0.891606
vt 0.732803 0.891606
vt 0.732803 0.857903
vt 0.919190 0.710493
vt 0.885487 0.710493
vt 0.885487 0.680285
vt 0.919190 0.680285
vt 0.421357 -0.014512
vt 0.421357 0.015697
vt 0.404696 0.015697
vt 0.404696 -0.014512
vt 0.073828 0.688373
vt 0.104036 0.688373
vt 0.104036 0.705033
vt 0.073828 0.705033
vt 0.104993 0.818008
vt 0.104993 0.854899
vt 0.084861 0.854899
vt 0.084861 0.818008
vt 0.950462 0.546629
vt 0.950462 0.583520
vt 0.934007 0.583520
vt 0.934007 0.546629
vt 0.357970 0.830282
vt 0.357970 0.793391
vt 0.378103 0.793391
vt 0.378103 0.830282
vt 0.850564 0.958036
vt 0.813673 0.958036
vt 0.813673 0.941580
vt 0.850564 0.941580
vt 0.866428 0.463417
vt 0.866428 0.479872
vt 0.846296 0.479872
vt 0.846296 0.463417
vt 0.513271 0.441081
vt 0.513271 0.424625
vt 0.533404 0.424625
vt 0.533404 0.441081
vt 0.889172 0.818341
vt 0.929653 0.818341
vt 0.929653 0.838667
vt 0.889172 0.838667
vt 0.590576 0.573789
vt 0.550095 0.573789
vt 0.550095 0.552931
vt 0.590576 0.552931
vt 0.137672 0.544212
vt 0.137672 0.584694
vt 0.117346 0.584694
vt 0.117346 0.544212
vt 0.690586 0.564128
vt 0.650104 0.564128
vt 0.650104 0.543270
vt 0.690586 0.543270
vt 0.728202 0.882041
vt 0.728202 0.902899
vt 0.707875 0.902899
vt 0.707875 0.882041
vt 0.593445 0.519857
vt 0.593445 0.498999
vt 0.613771 0.498999
vt 0.613771 0.519857
s 0
f 83/1/1 85/2/1 87/3/1 81/4/1
f 82/5/2 88/6/2 91/7/2 89/8/2
f 90/9/3 92/10/3 95/11/3 93/12/3
f 94/13/4 96/14/4 86/15/4 84/16/4
f 3/17/5 7/18/5 5/19/5 1/20/5
f 8/21/6 4/22/6 2/23/6 6/24/6
f 99/25/1 101/26/1 103/27/1 97/28/1
f 98/29/2 104/30/2 107/31/2 105/32/2
f 106/33/3 108/34/3 111/35/3 109/36/3
f 110/37/4 112/38/4 102/39/4 100/40/4
f 11/41/5 15/42/5 13/43/5 9/44/5
f 16/45/6 12/46/6 10/47/6 14/48/6
f 115/49/1 117/50/1 119/51/1 113/52/1
f 114/53/2 120/54/2 123/55/2 121/56/2
f 122/57/3 124/58/3 127/59/3 125/60/3
f 126/61/4 128/62/4 118/63/4 116/64/4
f 19/65/5 23/66/5 21/67/5 17/68/5
f 24/69/6 20/70/6 18/71/6 22/72/6
f 131/73/1 133/74/1 135/75/1 129/76/1
f 130/77/2 136/78/2 139/79/2 137/80/2
f 138/81/3 140/82/3 143/83/3 141/84/3
f 142/85/4 144/86/4 134/87/4 132/88/4
f 27/89/5 31/90/5 29/91/5 25/92/5
f 32/93/6 28/94/6 26/95/6 30/96/6
f 147/97/1 149/98/1 151/99/1 145/100/1
f 146/101/2 152/102/2 155/103/2 153/104/2
f 154/105/3 156/106/3 159/107/3 157/108/3
f 158/109/4 160/110/4 150/111/4 148/112/4
f 35/113/5 39/114/5 37/115/5 33/116/5
f 40/117/6 36/118/6 34/119/6 38/120/6
f 163/121/1 165/122/1 167/123/1 161/124/1
f 162/125/2 168/126/2 171/127/2 169/128/2
f 170/129/3 172/130/3 175/131/3 173/132/3
f 174/133/4 176/134/4 166/135/4 164/136/4
f 43/137/5 47/138/5 45/139/5 41/140/5
f 48/141/6 44/142/6 42/143/6 46/144/6
f 179/145/1 181/146/1 183/147/1 177/148/1
f 178/149/2 184/150/2 187/151/2 185/152/2
f 186/153/3 188/154/3 191/155/3 189/156/3
f 190/157/4 192/158/4 182/159/4 180/160/4
f 51/161/5 55/162/5 53/163/5 49/164/5
f 56/165/6 52/166/6 50/167/6 54/168/6
f 195/169/1 197/170/1 199/171/1 193/172/1
f 194/173/2 200/174/2 203/175/2 201/176/2
f 202/177/3 204/178/3 207/179/3 205/180/3
f 206/181/4 208/182/4 198/183/4 196/184/4
f 59/185/5 63/186/5 61/187/5 57/188/5
f 64/189/6 60/190/6 58/191/6 62/192/6
f 211/193/1 213/194/1 215/195/1 209/196/1
f 210/197/2 216/198/2 219/199/2 217/200/2
f 218/201/3 220/202/3 223/203/3 221/204/3
f 222/205/4 224/206/4 214/207/4 212/208/4
f 67/209/5 71/210/5 69/211/5 65/212/5
f 72/213/6 68/214/6 66/215/6 70/216/6
f 227/217/1 229/218/1 231/219/1 225/220/1
f 226/221/2 232/222/2 235/223/2 233/224/2
f 234/225/3 236/226/3 239/227/3 237/228/3
f 238/229/4 240/230/4 230/231/4 228/232/4
f 75/233/5 79/234/5 77/235/5 73/236/5
f 80/237/6 76/238/6 74/239/6 78/240/6
