# Blender 3.6.2
# www.blender.org
mtllib city_block7.mtl
o block7
v -46.595123 0.000000 -7.280357
v -46.595123 3.970152 -7.280357
v -46.595123 0.000000 -13.464342
v -46.595123 3.970152 -13.464342
v -43.877945 0.000000 -7.280357
v -43.877945 3.970152 -7.280357
v -43.877945 0.000000 -13.464342
v -43.877945 3.970152 -13.464342
v -47.746346 0.000001 -2.567627
v -47.746346 5.682576 -2.567627
v -47.746346 0.000001 -7.530435
v -47.746346 5.682576 -7.530435
v -43.699791 0.000001 -2.567627
v -43.699791 5.682576 -2.567627
v -43.699791 0.000001 -7.530435
v -43.699791 5.682576 -7.530435
v -47.208038 0.000000 2.921152
v -47.208038 4.437523 2.921152
v -47.208038 0.000000 -2.792267
v -47.208038 4.437523 -2.792267
v -43.917747 0.000000 2.921152
v -43.917747 4.437523 2.921152
v -43.917747 0.000000 -2.792267
v -43.917747 4.437523 -2.792267
v -47.671288 0.000000 5.811471
v -47.671288 4.816505 5.811471
v -47.671288 0.000000 2.782578
v -47.671288 4.816505 2.782578
v -43.802959 0.000000 5.811471
v -43.802959 4.816505 5.811471
v -43.802959 0.000000 2.782578
v -43.802959 4.816505 2.782578
v -47.074036 0.000000 8.802619
v -47.074036 7.546001 8.802619
v -47.074036 0.000000 5.600432
v -47.074036 7.546001 5.600432
v -43.464836 0.000000 8.802619
v -43.464836 7.546001 8.802619
v -43.464836 0.000000 5.600432
v -43.464836 7.546001 5.600432
v -47.789116 0.000000 11.587787
v -47.789116 4.929180 11.587787
v -47.789116 0.000000 8.681590
v -47.789116 4.929180 8.681590
v -45.639641 0.000000 11.587787
v -45.639641 4.929180 11.587787
v -45.639641 0.000000 8.681590
v -45.639641 4.929180 8.681590
v -48.729687 0.000000 13.297311
v -48.729687 5.569526 13.297311
v -48.729687 0.000000 11.315309
v -48.729687 5.569526 11.315309
v -43.570244 0.000000 13.297311
v -43.570244 5.569526 13.297311
v -43.570244 0.000000 11.315309
v -43.570244 5.569526 11.315309
v -49.148258 0.000000 20.020073
v -49.148258 3.468671 20.020073
v -49.148258 0.000000 13.205340
v -49.148258 3.468671 13.205340
v -45.978420 0.000000 20.020073
v -45.978420 3.468671 20.020073
v -45.978420 0.000000 13.205340
v -45.978420 3.468671 13.205340
v -48.111565 0.000000 24.322365
v -48.111565 9.571870 24.322365
v -48.111565 0.000000 19.800056
v -48.111565 9.571870 19.800056
v -43.772331 0.000000 24.322365
v -43.772331 9.571870 24.322365
v -43.772331 0.000000 19.800056
v -43.772331 9.571870 19.800056
v -47.297272 0.000000 29.817940
v -47.297272 8.746984 29.817940
v -47.297272 0.000000 24.112465
v -47.297272 8.746984 24.112465
v -43.918045 0.000000 29.817940
v -43.918045 8.746984 29.817940
v -43.918045 0.000000 24.112465
v -43.918045 8.746984 24.112465
v -47.568420 -0.000001 35.078278
v -47.568420 10.319070 35.078278
v -47.568420 -0.000001 29.803871
v -47.568420 10.319070 29.803871
v -43.593353 -0.000001 35.078278
v -43.593353 10.319070 35.078278
v -43.593353 -0.000001 29.803871
v -43.593353 10.319070 29.803871
v -46.595123 0.000000 -13.464342
v -46.595123 0.000000 -13.464342
v -46.595123 0.000000 -7.280357
v -46.595123 0.000000 -7.280357
v -46.595123 3.970152 -7.280357
v -46.595123 3.970152 -7.280357
v -46.595123 3.970152 -13.464342
v -46.595123 3.970152 -13.464342
v -43.877945 0.000000 -13.464342
v -43.877945 0.000000 -13.464342
v -43.877945 3.970152 -13.464342
v -43.877945 3.970152 -13.464342
v -43.877945 0.000000 -7.280357
v -43.877945 0.000000 -7.280357
v -43.877945 3.970152 -7.280357
v -43.877945 3.970152 -7.280357
v -47.746346 0.000001 -7.530435
v -47.746346 0.000001 -7.530435
v -47.746346 0.000001 -2.567627
v -47.746346 0.000001 -2.567627
v -47.746346 5.682576 -2.567627
v -47.746346 5.682576 -2.567627
v -47.746346 5.682576 -7.530435
v -47.746346 5.682576 -7.530435
v -43.699791 0.000001 -7.530435
v -43.699791 0.000001 -7.530435
v -43.699791 5.682576 -7.530435
v -43.699791 5.682576 -7.530435
v -43.699791 0.000001 -2.567627
v -43.699791 0.000001 -2.567627
v -43.699791 5.682576 -2.567627
v -43.699791 5.682576 -2.567627
v -47.208038 0.000000 -2.792267
v -47.208038 0.000000 -2.792267
v -47.208038 0.000000 2.921152
v -47.208038 0.000000 2.921152
v -47.208038 4.437523 2.921152
v -47.208038 4.437523 2.921152
v -47.208038 4.437523 -2.792267
v -47.208038 4.437523 -2.792267
v -43.917747 0.000000 -2.792267
v -43.917747 0.000000 -2.792267
v -43.917747 4.437523 -2.792267
v -43.917747 4.437523 -2.792267
v -43.917747 0.000000 2.921152
v -43.917747 0.000000 2.921152
v -43.917747 4.437523 2.921152
v -43.917747 4.437523 2.921152
v -47.671288 0.000000 2.782578
v -47.671288 0.000000 2.782578
v -47.671288 0.000000 5.811471
v -47.671288 0.000000 5.811471
v -47.671288 4.816505 5.811471
v -47.671288 4.816505 5.811471
v -47.671288 4.816505 2.782578
v -47.671288 4.816505 2.782578
v -43.802959 0.000000 2.782578
v -43.802959 0.000000 2.782578
v -43.802959 4.816505 2.782578
v -43.802959 4.816505 2.782578
v -43.802959 0.000000 5.811471
v -43.802959 0.000000 5.811471
v -43.802959 4.816505 5.811471
v -43.802959 4.816505 5.811471
v -47.074036 0.000000 5.600432
v -47.074036 0.000000 5.600432
v -47.074036 0.000000 8.802619
v -47.074036 0.000000 8.802619
v -47.074036 7.546001 8.802619
v -47.074036 7.546001 8.802619
v -47.074036 7.546001 5.600432
v -47.074036 7.546001 5.600432
v -43.464836 0.000000 5.600432
v -43.464836 0.000000 5.600432
v -43.464836 7.546001 5.600432
v -43.464836 7.546001 5.600432
v -43.464836 0.000000 8.802619
v -43.464836 0.000000 8.802619
v -43.464836 7.546001 8.802619
v -43.464836 7.546001 8.802619
v -47.789116 0.000000 8.681590
v -47.789116 0.000000 8.681590
v -47.789116 0.000000 11.587787
v -47.789116 0.000000 11.587787
v -47.789116 4.929180 11.587787
v -47.789116 4.929180 11.587787
v -47.789116 4.929180 8.681590
v -47.789116 4.929180 8.681590
v -45.639641 0.000000 8.681590
v -45.639641 0.000000 8.681590
v -45.639641 4.929180 8.681590
v -45.639641 4.929180 8.681590
v -45.639641 0.000000 11.587787
v -45.639641 0.000000 11.587787
v -45.639641 4.929180 11.587787
v -45.639641 4.929180 11.587787
v -48.729687 0.000000 11.315309
v -48.729687 0.000000 11.315309
v -48.729687 0.000000 13.297311
v -48.729687 0.000000 13.297311
v -48.729687 5.569526 13.297311
v -48.729687 5.569526 13.297311
v -48.729687 5.569526 11.315309
v -48.729687 5.569526 11.315309
v -43.570244 0.000000 11.315309
v -43.570244 0.000000 11.315309
v -43.570244 5.569526 11.315309
v -43.570244 5.569526 11.315309
v -43.570244 0.000000 13.297311
v -43.570244 0.000000 13.297311
v -43.570244 5.569526 13.297311
v -43.570244 5.569526 13.297311
v -49.148258 0.000000 13.205340
v -49.148258 0.000000 13.205340
v -49.148258 0.000000 20.020073
v -49.148258 0.000000 20.020073
v -49.148258 3.468671 20.020073
v -49.148258 3.468671 20.020073
v -49.148258 3.468671 13.205340
v -49.148258 3.468671 13.205340
v -45.978420 0.000000 13.205340
v -45.978420 0.000000 13.205340
v -45.978420 3.468671 13.205340
v -45.978420 3.468671 13.205340
v -45.978420 0.000000 20.020073
v -45.978420 0.000000 20.020073
v -45.978420 3.468671 20.020073
v -45.978420 3.468671 20.020073
v -48.111565 0.000000 19.800056
v -48.111565 0.000000 19.800056
v -48.111565 0.000000 24.322365
v -48.111565 0.000000 24.322365
v -48.111565 9.571870 24.322365
v -48.111565 9.571870 24.322365
v -48.111565 9.571870 19.800056
v -48.111565 9.571870 19.800056
v -43.772331 0.000000 19.800056
v -43.772331 0.000000 19.800056
v -43.772331 9.571870 19.800056
v -43.772331 9.571870 19.800056
v -43.772331 0.000000 24.322365
v -43.772331 0.000000 24.322365
v -43.772331 9.571870 24.322365
v -43.772331 9.571870 24.322365
v -47.297272 0.000000 24.112465
v -47.297272 0.000000 24.112465
v -47.297272 0.000000 29.817940
v -47.297272 0.000000 29.817940
v -47.297272 8.746984 29.817940
v -47.297272 8.746984 29.817940
v -47.297272 8.746984 24.112465
v -47.297272 8.746984 24.112465
v -43.918045 0.000000 24.112465
v -43.918045 0.000000 24.112465
v -43.918045 8.746984 24.112465
v -43.918045 8.746984 24.112465
v -43.918045 0.000000 29.817940
v -43.918045 0.000000 29.817940
v -43.918045 8.746984 29.817940
v -43.918045 8.746984 29.817940
v -47.568420 -0.000001 29.803871
v -47.568420 -0.000001 29.803871
v -47.568420 -0.000001 35.078278
v -47.568420 -0.000001 35.078278
v -47.568420 10.319070 35.078278
v -47.568420 10.319070 35.078278
v -47.568420 10.319070 29.803871
v -47.568420 10.319070 29.803871
v -43.593353 -0.000001 29.803871
v -43.593353 -0.000001 29.803871
v -43.593353 10.319070 29.803871
v -43.593353 10.319070 29.803871
v -43.593353 -0.000001 35.078278
v -43.593353 -0.000001 35.078278
v -43.593353 10.319070 35.078278
v -43.593353 10.319070 35.078278
vn -1.0000 -0.0000 -0.0000
vn -0.0000 -0.0000 -1.0000
vn 1.0000 -0.0000 -0.0000
vn -0.0000 -0.0000 1.0000
vn -0.0000 -1.0000 -0.0000
vn -0.0000 1.0000 -0.0000
vt 0.778989 0.491055
vt 0.778989 0.467151
vt 0.816223 0.467151
vt 0.816223 0.491055
vt 0.968838 0.917958
vt 0.944934 0.917958
vt 0.944934 0.901598
vt 0.968838 0.901598
vt 0.816223 0.491055
vt 0.816223 0.514959
vt 0.778989 0.514959
vt 0.778989 0.491055
vt 0.968838 0.934318
vt 0.944934 0.934318
vt 0.778989 0.653957
vt 0.778989 0.637596
vt 0.816223 0.637596
vt 0.816223 0.653957
vt 0.778989 0.670317
vt 0.816223 0.670317
vt 0.851876 0.491862
vt 0.817662 0.491862
vt 0.817662 0.461981
vt 0.851876 0.461981
vt 0.817662 0.679386
vt 0.851876 0.679386
vt 0.851876 0.703750
vt 0.817662 0.703750
vt 0.817662 0.491862
vt 0.851876 0.491862
vt 0.851876 0.521743
vt 0.817662 0.521743
vt 0.817662 0.703750
vt 0.851876 0.728115
vt 0.817662 0.728115
vt 0.071982 0.885803
vt 0.096346 0.885803
vt 0.096346 0.915684
vt 0.071982 0.915684
vt 0.047617 0.885803
vt 0.071982 0.885803
vt 0.047617 0.915684
vt 0.817661 0.392124
vt 0.817661 0.365405
vt 0.852062 0.365405
vt 0.852062 0.392124
vt 0.944057 0.548704
vt 0.917338 0.548704
vt 0.917338 0.528893
vt 0.944057 0.528893
vt 0.817662 0.365405
vt 0.817662 0.338687
vt 0.852062 0.338687
vt 0.852062 0.365405
vt 0.917338 0.548704
vt 0.944057 0.548704
vt 0.944057 0.568515
vt 0.917338 0.568515
vt 0.817662 0.780000
vt 0.817662 0.760189
vt 0.852062 0.760189
vt 0.852062 0.780000
vt 0.852062 0.780000
vt 0.852062 0.799811
vt 0.817661 0.799811
vt 0.817661 0.780000
vt 0.220714 0.945014
vt 0.220714 0.916014
vt 0.238951 0.916014
vt 0.238951 0.945014
vt 0.885132 0.914803
vt 0.885132 0.885803
vt 0.908424 0.885803
vt 0.908424 0.914803
vt 0.257188 0.916014
vt 0.257188 0.945014
vt 0.023291 0.916014
vt 0.023291 0.945014
vt 0.000000 0.945014
vt 0.000000 0.916014
vt 0.302404 0.968306
vt 0.302404 0.945014
vt 0.320641 0.945014
vt 0.320641 0.968306
vt 0.320641 0.945014
vt 0.338878 0.945014
vt 0.338878 0.968306
vt 0.649092 0.378076
vt 0.694527 0.378076
vt 0.694527 0.397356
vt 0.649092 0.397356
vt 0.694527 0.337064
vt 0.649092 0.337064
vt 0.649092 0.315333
vt 0.694527 0.315333
vt 0.649092 0.358795
vt 0.694527 0.358795
vt 0.694527 0.378075
vt 0.649092 0.378075
vt 0.649092 0.337064
vt 0.694527 0.337064
vt 0.694527 0.358795
vt 0.649092 0.358795
vt 0.618265 0.966745
vt 0.618265 0.945014
vt 0.637546 0.945014
vt 0.637546 0.966745
vt 0.618265 0.945014
vt 0.618265 0.966745
vt 0.598985 0.966745
vt 0.598985 0.945014
vt 0.606079 0.915481
vt 0.606079 0.885803
vt 0.623577 0.885803
vt 0.623577 0.915481
vt 0.805202 0.915481
vt 0.805202 0.885803
vt 0.818144 0.885803
vt 0.818144 0.915481
vt 0.641075 0.885803
vt 0.641075 0.915481
vt 0.623577 0.915481
vt 0.623577 0.885803
vt 0.831086 0.885803
vt 0.831086 0.915481
vt 0.818144 0.915481
vt 0.971486 0.024691
vt 0.971486 0.011749
vt 0.988985 0.011749
vt 0.988985 0.024691
vt 0.971486 0.037633
vt 0.988985 0.037633
vt 0.817890 0.851120
vt 0.817890 0.884654
vt 0.805956 0.884654
vt 0.805956 0.851120
vt 0.164636 0.851120
vt 0.164636 0.884654
vt 0.133571 0.884654
vt 0.133571 0.851120
vt 0.829823 0.851120
vt 0.829823 0.884654
vt 0.817890 0.884654
vt 0.817890 0.851120
vt 0.195702 0.851120
vt 0.195702 0.884654
vt 0.164636 0.884654
vt 0.916805 0.537995
vt 0.885740 0.537995
vt 0.885740 0.526061
vt 0.916805 0.526061
vt 0.885740 0.537995
vt 0.916805 0.537995
vt 0.916805 0.549929
vt 0.885740 0.549929
vt 0.723842 0.772768
vt 0.702957 0.772768
vt 0.702957 0.731736
vt 0.723842 0.731736
vt 0.932697 0.965899
vt 0.932697 0.945014
vt 0.951783 0.945014
vt 0.951783 0.965899
vt 0.737957 0.201169
vt 0.737957 0.180284
vt 0.778989 0.180284
vt 0.778989 0.201169
vt 0.970868 0.945014
vt 0.970868 0.965899
vt 0.951783 0.965899
vt 0.951783 0.945014
vt 0.737957 0.220254
vt 0.737957 0.201169
vt 0.778989 0.201168
vt 0.778989 0.220254
vt 0.737957 0.239340
vt 0.778989 0.239340
vt 0.544000 0.480855
vt 0.486368 0.480855
vt 0.486368 0.453626
vt 0.544000 0.453626
vt 0.026127 0.532037
vt 0.026127 0.589669
vt -0.000000 0.589669
vt -0.000000 0.532037
vt 0.486368 0.480855
vt 0.544000 0.480855
vt 0.544000 0.508084
vt 0.486368 0.508084
vt 0.052253 0.532037
vt 0.052253 0.589669
vt 0.026127 0.589669
vt 0.026127 0.532037
vt 0.763695 0.916014
vt 0.789822 0.916014
vt 0.789822 0.943243
vt 0.763695 0.943243
vt 0.737568 0.916014
vt 0.763695 0.916014
vt 0.763695 0.943243
vt 0.737568 0.943243
vt 0.599443 0.064670
vt 0.546777 0.064670
vt 0.546777 0.030317
vt 0.599443 0.030317
vt 0.546777 0.141735
vt 0.599442 0.141735
vt 0.599442 0.162082
vt 0.546777 0.162082
vt 0.546777 0.064670
vt 0.599443 0.064670
vt 0.599443 0.099022
vt 0.546777 0.099022
vt 0.599443 0.162082
vt 0.599443 0.182428
vt 0.546777 0.182428
vt 0.817662 0.820157
vt 0.817662 0.799811
vt 0.852014 0.799811
vt 0.852014 0.820157
vt 0.817662 0.840504
vt 0.817662 0.820157
vt 0.852014 0.820157
vt 0.852014 0.840504
vt 0.133597 0.531076
vt 0.133597 0.468945
vt 0.165354 0.468945
vt 0.165354 0.531076
vt 0.228010 0.468945
vt 0.228010 0.531076
vt 0.204076 0.531076
vt 0.204076 0.468945
vt 0.197112 0.468945
vt 0.197112 0.531076
vt 0.165354 0.531076
vt 0.165354 0.468945
vt 0.251944 0.468945
vt 0.251944 0.531076
vt 0.228010 0.468945
vt 0.852870 0.656436
vt 0.852870 0.632502
vt 0.884627 0.632502
vt 0.884627 0.656436
vt 0.852870 0.608568
vt 0.884627 0.608568
s 0
f 91/1/1 93/2/1 95/3/1 89/4/1
f 90/5/2 96/6/2 99/7/2 97/8/2
f 98/9/3 100/10/3 103/11/3 101/12/3
f 102/6/4 104/5/4 94/13/4 92/14/4
f 3/15/5 7/16/5 5/17/5 1/18/5
f 8/19/6 4/15/6 2/18/6 6/20/6
f 107/21/1 109/22/1 111/23/1 105/24/1
f 106/25/2 112/26/2 115/27/2 113/28/2
f 114/29/3 116/30/3 119/31/3 117/32/3
f 118/33/4 120/27/4 110/34/4 108/35/4
f 11/36/5 15/37/5 13/38/5 9/39/5
f 16/40/6 12/41/6 10/39/6 14/42/6
f 123/43/1 125/44/1 127/45/1 121/46/1
f 122/47/2 128/48/2 131/49/2 129/50/2
f 130/51/3 132/52/3 135/53/3 133/54/3
f 134/55/4 136/56/4 126/57/4 124/58/4
f 19/59/5 23/60/5 21/61/5 17/62/5
f 24/63/6 20/64/6 18/65/6 22/66/6
f 139/67/1 141/68/1 143/69/1 137/70/1
f 138/71/2 144/72/2 147/73/2 145/74/2
f 146/75/3 148/76/3 151/70/3 149/69/3
f 150/77/4 152/78/4 142/79/4 140/80/4
f 27/81/5 31/82/5 29/83/5 25/84/5
f 32/84/6 28/85/6 26/86/6 30/87/6
f 155/88/1 157/89/1 159/90/1 153/91/1
f 154/92/2 160/93/2 163/94/2 161/95/2
f 162/96/3 164/97/3 167/98/3 165/99/3
f 166/100/4 168/101/4 158/102/4 156/103/4
f 35/104/5 39/105/5 37/106/5 33/107/5
f 40/108/6 36/109/6 34/110/6 38/111/6
f 171/112/1 173/113/1 175/114/1 169/115/1
f 170/116/2 176/117/2 179/118/2 177/119/2
f 178/120/3 180/121/3 183/122/3 181/123/3
f 182/124/4 184/125/4 174/126/4 172/118/4
f 43/127/5 47/128/5 45/129/5 41/130/5
f 48/131/6 44/127/6 42/130/6 46/132/6
f 187/133/1 189/134/1 191/135/1 185/136/1
f 186/137/2 192/138/2 195/139/2 193/140/2
f 194/141/3 196/142/3 199/143/3 197/144/3
f 198/145/4 200/146/4 190/147/4 188/137/4
f 51/148/5 55/149/5 53/150/5 49/151/5
f 56/152/6 52/153/6 50/154/6 54/155/6
f 203/156/1 205/157/1 207/158/1 201/159/1
f 202/160/2 208/161/2 211/162/2 209/163/2
f 210/164/3 212/165/3 215/166/3 213/167/3
f 214/168/4 216/169/4 206/170/4 204/171/4
f 59/172/5 63/173/5 61/174/5 57/175/5
f 64/176/6 60/172/6 58/175/6 62/177/6
f 219/178/1 221/179/1 223/180/1 217/181/1
f 218/182/2 224/183/2 227/184/2 225/185/2
f 226/186/3 228/187/3 231/188/3 229/189/3
f 230/190/4 232/191/4 222/192/4 220/193/4
f 67/194/5 71/195/5 69/196/5 65/197/5
f 72/198/6 68/199/6 66/200/6 70/201/6
f 235/202/1 237/203/1 239/204/1 233/205/1
f 234/206/2 240/207/2 243/208/2 241/209/2
f 242/210/3 244/211/3 247/212/3 245/213/3
f 246/209/4 248/214/4 238/215/4 236/216/4
f 75/217/5 79/218/5 77/219/5 73/220/5
f 80/221/6 76/222/6 74/223/6 78/224/6
f 251/225/1 253/226/1 255/227/1 249/228/1
f 250/229/2 256/230/2 259/231/2 257/232/2
f 258/233/3 260/234/3 263/235/3 261/236/3
f 262/237/4 264/238/4 254/230/4 252/239/4
f 83/240/5 87/241/5 85/242/5 81/243/5
f 88/241/6 84/244/6 82/245/6 86/242/6
