# Blender 3.6.2
# www.blender.org
mtllib city_block4.mtl
o block4
v -30.702618 0.000000 31.663166
v -30.702618 4.497892 31.663166
v -30.702618 0.000000 25.016354
v -30.702618 4.497892 25.016354
v -26.629147 0.000000 31.663166
v -26.629147 4.497892 31.663166
v -26.629147 0.000000 25.016354
v -26.629147 4.497892 25.016354
v -35.889889 0.000000 31.356789
v -35.889889 3.594502 31.356789
v -35.889889 0.000000 27.124691
v -35.889889 3.594502 27.124691
v -30.523510 0.000000 31.356789
v -30.523510 3.594502 31.356789
v -30.523510 0.000000 27.124691
v -30.523510 3.594502 27.124691
v -39.627831 0.000000 31.080452
v -39.627831 4.901855 31.080452
v -39.627831 0.000000 26.633438
v -39.627831 4.901855 26.633438
v -35.496941 0.000000 31.080452
v -35.496941 4.901855 31.080452
v -35.496941 0.000000 26.633438
v -35.496941 4.901855 26.633438
v -38.375381 0.000001 26.750992
v -38.375381 3.431210 26.750992
v -38.375381 0.000001 22.253525
v -38.375381 3.431210 22.253525
v -36.460037 0.000001 26.750992
v -36.460037 3.431210 26.750992
v -36.460037 0.000001 22.253525
v -36.460037 3.431210 22.253525
v -38.091217 0.000002 22.372749
v -38.091217 4.671242 22.372749
v -38.091217 0.000002 20.494209
v -38.091217 4.671242 20.494209
v -35.408604 0.000002 22.372749
v -35.408604 4.671242 22.372749
v -35.408604 0.000002 20.494209
v -35.408604 4.671242 20.494209
v -39.646408 0.000000 21.080040
v -39.646408 5.299717 21.080040
v -39.646408 0.000000 18.413979
v -39.646408 5.299717 18.413979
v -33.303055 0.000000 21.080040
v -33.303055 5.299717 21.080040
v -33.303055 0.000000 15.143395
v -33.303055 5.299717 15.143395
v -31.770630 0.000000 25.201923
v -31.770630 4.944927 25.201923
v -31.770630 0.000000 20.272976
v -31.770630 4.944927 20.272976
v -27.505955 0.000000 25.201923
v -27.505955 4.944927 25.201923
v -27.505955 0.000000 20.272976
v -27.505955 4.944927 20.272976
v -33.621571 0.000000 20.713388
v -33.621571 4.054380 20.713388
v -33.621571 0.000000 14.857075
v -33.621571 4.054380 14.857075
v -26.997057 0.000000 20.713388
v -26.997057 4.054380 20.713388
v -30.306324 0.000000 13.141753
v -26.997057 0.000000 14.880241
v -26.997057 4.054380 14.880241
v -30.306324 4.054380 13.141753
v -30.702618 0.000000 25.016354
v -30.702618 0.000000 25.016354
v -30.702618 0.000000 31.663166
v -30.702618 0.000000 31.663166
v -30.702618 4.497892 31.663166
v -30.702618 4.497892 31.663166
v -30.702618 4.497892 25.016354
v -30.702618 4.497892 25.016354
v -26.629147 0.000000 25.016354
v -26.629147 0.000000 25.016354
v -26.629147 4.497892 25.016354
v -26.629147 4.497892 25.016354
v -26.629147 0.000000 31.663166
v -26.629147 0.000000 31.663166
v -26.629147 4.497892 31.663166
v -26.629147 4.497892 31.663166
v -35.889889 0.000000 27.124691
v -35.889889 0.000000 27.124691
v -35.889889 0.000000 31.356789
v -35.889889 0.000000 31.356789
v -35.889889 3.594502 31.356789
v -35.889889 3.594502 31.356789
v -35.889889 3.594502 27.124691
v -35.889889 3.594502 27.124691
v -30.523510 0.000000 27.124691
v -30.523510 0.000000 27.124691
v -30.523510 3.594502 27.124691
v -30.523510 3.594502 27.124691
v -30.523510 0.000000 31.356789
v -30.523510 0.000000 31.356789
v -30.523510 3.594502 31.356789
v -30.523510 3.594502 31.356789
v -39.627831 0.000000 26.633438
v -39.627831 0.000000 26.633438
v -39.627831 0.000000 31.080452
v -39.627831 0.000000 31.080452
v -39.627831 4.901855 31.080452
v -39.627831 4.901855 31.080452
v -39.627831 4.901855 26.633438
v -39.627831 4.901855 26.633438
v -35.496941 0.000000 26.633438
v -35.496941 0.000000 26.633438
v -35.496941 4.901855 26.633438
v -35.496941 4.901855 26.633438
v -35.496941 0.000000 31.080452
v -35.496941 0.000000 31.080452
v -35.496941 4.901855 31.080452
v -35.496941 4.901855 31.080452
v -38.375381 0.000001 22.253525
v -38.375381 0.000001 22.253525
v -38.375381 0.000001 26.750992
v -38.375381 0.000001 26.750992
v -38.375381 3.431210 26.750992
v -38.375381 3.431210 26.750992
v -38.375381 3.431210 22.253525
v -38.375381 3.431210 22.253525
v -36.460037 0.000001 22.253525
v -36.460037 0.000001 22.253525
v -36.460037 3.431210 22.253525
v -36.460037 3.431210 22.253525
v -36.460037 0.000001 26.750992
v -36.460037 0.000001 26.750992
v -36.460037 3.431210 26.750992
v -36.460037 3.431210 26.750992
v -38.091217 0.000002 20.494209
v -38.091217 0.000002 20.494209
v -38.091217 0.000002 22.372749
v -38.091217 0.000002 22.372749
v -38.091217 4.671242 22.372749
v -38.091217 4.671242 22.372749
v -38.091217 4.671242 20.494209
v -38.091217 4.671242 20.494209
v -35.408604 0.000002 20.494209
v -35.408604 0.000002 20.494209
v -35.408604 4.671242 20.494209
v -35.408604 4.671242 20.494209
v -35.408604 0.000002 22.372749
v -35.408604 0.000002 22.372749
v -35.408604 4.671242 22.372749
v -35.408604 4.671242 22.372749
v -39.646408 0.000000 18.413979
v -39.646408 0.000000 18.413979
v -39.646408 0.000000 21.080040
v -39.646408 0.000000 21.080040
v -39.646408 5.299717 21.080040
v -39.646408 5.299717 21.080040
v -39.646408 5.299717 18.413979
v -39.646408 5.299717 18.413979
v -33.303055 0.000000 15.143395
v -33.303055 0.000000 15.143395
v -33.303055 5.299717 15.143395
v -33.303055 5.299717 15.143395
v -33.303055 0.000000 21.080040
v -33.303055 0.000000 21.080040
v -33.303055 5.299717 21.080040
v -33.303055 5.299717 21.080040
v -31.770630 0.000000 20.272976
v -31.770630 0.000000 20.272976
v -31.770630 0.000000 25.201923
v -31.770630 0.000000 25.201923
v -31.770630 4.944927 25.201923
v -31.770630 4.944927 25.201923
v -31.770630 4.944927 20.272976
v -31.770630 4.944927 20.272976
v -27.505955 0.000000 20.272976
v -27.505955 0.000000 20.272976
v -27.505955 4.944927 20.272976
v -27.505955 4.944927 20.272976
v -27.505955 0.000000 25.201923
v -27.505955 0.000000 25.201923
v -27.505955 4.944927 25.201923
v -27.505955 4.944927 25.201923
v -33.621571 0.000000 14.857075
v -33.621571 0.000000 14.857075
v -33.621571 0.000000 20.713388
v -33.621571 0.000000 20.713388
v -33.621571 4.054380 20.713388
v -33.621571 4.054380 20.713388
v -33.621571 4.054380 14.857075
v -33.621571 4.054380 14.857075
v -26.997057 4.054380 20.713388
v -26.997057 4.054380 20.713388
v -26.997057 0.000000 20.713388
v -26.997057 0.000000 20.713388
v -30.306324 4.054380 13.141753
v -30.306324 4.054380 13.141753
v -26.997057 4.054380 14.880241
v -26.997057 4.054380 14.880241
v -26.997057 0.000000 14.880241
v -26.997057 0.000000 14.880241
v -30.306324 0.000000 13.141753
v -30.306324 0.000000 13.141753
vn -1.0000 -0.0000 -0.0000
vn -0.0000 -0.0000 -1.0000
vn 1.0000 -0.0000 -0.0000
vn -0.0000 -0.0000 1.0000
vn -0.0000 -1.0000 -0.0000
vn -0.0000 1.0000 -0.0000
vn -0.4583 -0.0000 -0.8888
vn -0.4595 -0.0000 -0.8882
vn 0.4651 -0.0000 -0.8853
vt 0.777918 0.542431
vt 0.777918 0.569472
vt 0.737957 0.569472
vt 0.737957 0.542431
vt 0.917338 0.000000
vt 0.944380 0.000000
vt 0.944380 0.024490
vt 0.917338 0.024490
vt 0.737957 0.515389
vt 0.777918 0.515389
vt 0.908779 0.916014
vt 0.908779 0.943056
vt 0.884289 0.943056
vt 0.884289 0.916014
vt 0.737957 0.593962
vt 0.737957 0.569472
vt 0.777918 0.569472
vt 0.777918 0.593962
vt 0.737957 0.618452
vt 0.777918 0.618452
vt 0.970377 0.163992
vt 0.970377 0.185603
vt 0.944934 0.185603
vt 0.944934 0.163992
vt 0.885133 0.250040
vt 0.885133 0.271650
vt 0.852870 0.271650
vt 0.852870 0.250040
vt 0.944934 0.207213
vt 0.944934 0.185603
vt 0.970377 0.185603
vt 0.970377 0.207213
vt 0.852870 0.293261
vt 0.885133 0.293261
vt 0.885133 0.224596
vt 0.852870 0.224596
vt 0.852870 0.199153
vt 0.885133 0.199153
vt 0.852870 0.224596
vt 0.885133 0.224596
vt 0.394765 0.915273
vt 0.394764 0.885803
vt 0.421500 0.885803
vt 0.421500 0.915273
vt 0.471170 0.885803
vt 0.471170 0.915273
vt 0.446335 0.915273
vt 0.446335 0.885803
vt 0.394765 0.885803
vt 0.368029 0.915273
vt 0.368029 0.885803
vt 0.446335 0.885803
vt 0.446335 0.915273
vt 0.421500 0.915273
vt 0.421500 0.885803
vt 0.917338 0.362669
vt 0.917338 0.337834
vt 0.944074 0.337834
vt 0.944074 0.362669
vt 0.917338 0.387504
vt 0.917338 0.362669
vt 0.944074 0.362669
vt 0.944074 0.387504
vt 0.944377 0.196689
vt 0.944377 0.217318
vt 0.917338 0.217318
vt 0.917338 0.196689
vt 0.122098 0.989864
vt 0.122098 0.969236
vt 0.133613 0.969236
vt 0.133613 0.989864
vt 0.917338 0.237946
vt 0.944377 0.237946
vt 0.145129 0.969236
vt 0.145129 0.989864
vt 0.133613 0.989864
vt 0.133613 0.969236
vt 0.917338 0.625959
vt 0.917338 0.614444
vt 0.944377 0.614444
vt 0.944377 0.625959
vt 0.917338 0.614444
vt 0.917338 0.602929
vt 0.944377 0.602929
vt 0.944377 0.614444
vt 0.726274 0.916014
vt 0.726274 0.944098
vt 0.714981 0.944098
vt 0.714981 0.916014
vt 0.575938 0.944098
vt 0.575938 0.916014
vt 0.592066 0.916014
vt 0.592066 0.944098
vt 0.737568 0.916014
vt 0.737568 0.944098
vt 0.726274 0.944098
vt 0.726274 0.916014
vt 0.608194 0.916014
vt 0.608194 0.944098
vt 0.592066 0.944098
vt 0.987615 0.125306
vt 0.971487 0.125306
vt 0.971487 0.114012
vt 0.987615 0.114012
vt 0.987615 0.136600
vt 0.971487 0.136600
vt 0.884732 0.779454
vt 0.852870 0.779454
vt 0.852870 0.763425
vt 0.884732 0.763425
vt 0.634870 0.730202
vt 0.603008 0.730202
vt 0.603008 0.687294
vt 0.634870 0.687294
vt 0.331419 0.814489
vt 0.363281 0.814489
vt 0.363281 0.850181
vt 0.331419 0.850181
vt 0.471037 0.773880
vt 0.502899 0.773880
vt 0.502899 0.812017
vt 0.471037 0.812017
vt 0.364681 0.773880
vt 0.384344 0.812017
vt 0.348652 0.812017
vt 0.348652 0.773880
vt 0.348652 0.773880
vt 0.328989 0.812017
vt 0.312961 0.812017
vt 0.312961 0.773880
vt 0.885740 0.836010
vt 0.915469 0.836010
vt 0.915469 0.865643
vt 0.885740 0.865643
vt 0.200190 0.885803
vt 0.200190 0.915532
vt 0.174550 0.915532
vt 0.174550 0.885803
vt 0.029633 0.885803
vt 0.029633 0.915532
vt 0.000000 0.915532
vt 0.000000 0.885803
vt 0.225829 0.885803
vt 0.225829 0.915532
vt 0.200190 0.915532
vt 0.200190 0.885803
vt 0.268798 0.885803
vt 0.294437 0.885803
vt 0.294437 0.915436
vt 0.268798 0.915436
vt 0.320077 0.885803
vt 0.320077 0.915436
vt 0.852870 -0.000000
vt 0.852870 0.024375
vt 0.817662 0.024375
vt 0.817662 0.000000
vt 0.817662 0.102298
vt 0.817662 0.077923
vt 0.852731 0.077923
vt 0.852731 0.102298
vt 0.244158 0.650952
vt 0.264054 0.640501
vt 0.283985 0.650813
vt 0.283985 0.686022
vt 0.244158 0.686022
vt 0.737957 0.740105
vt 0.737957 0.715730
vt 0.777784 0.715730
vt 0.777784 0.740105
vt 0.944934 0.759163
vt 0.969309 0.759163
vt 0.969309 0.781604
vt 0.944934 0.781604
vt 0.944934 0.736689
vt 0.969309 0.736689
vt 0.969309 0.759163
vt 0.944934 0.759163
vt 0.283985 0.650813
vt 0.303916 0.640501
vt 0.323812 0.650952
vt 0.323812 0.686022
vt 0.283985 0.686022
s 0
f 69/1/1 71/2/1 73/3/1 67/4/1
f 68/5/2 74/6/2 77/7/2 75/8/2
f 76/4/3 78/9/3 81/10/3 79/1/3
f 80/11/4 82/12/4 72/13/4 70/14/4
f 3/15/5 7/16/5 5/17/5 1/18/5
f 8/19/6 4/15/6 2/18/6 6/20/6
f 85/21/1 87/22/1 89/23/1 83/24/1
f 84/25/2 90/26/2 93/27/2 91/28/2
f 92/29/3 94/30/3 97/31/3 95/32/3
f 96/33/4 98/27/4 88/26/4 86/34/4
f 11/35/5 15/36/5 13/37/5 9/38/5
f 16/39/6 12/40/6 10/25/6 14/28/6
f 101/41/1 103/42/1 105/43/1 99/44/1
f 100/45/2 106/46/2 109/47/2 107/48/2
f 108/49/3 110/41/3 113/50/3 111/51/3
f 112/52/4 114/53/4 104/54/4 102/55/4
f 19/56/5 23/57/5 21/58/5 17/59/5
f 24/60/6 20/61/6 18/62/6 22/63/6
f 117/64/1 119/65/1 121/66/1 115/67/1
f 116/68/2 122/69/2 125/70/2 123/71/2
f 124/72/3 126/66/3 129/65/3 127/73/3
f 128/74/4 130/75/4 120/76/4 118/77/4
f 27/78/5 31/79/5 29/80/5 25/81/5
f 32/82/6 28/83/6 26/84/6 30/85/6
f 133/86/1 135/87/1 137/88/1 131/89/1
f 132/90/2 138/91/2 141/92/2 139/93/2
f 140/94/3 142/95/3 145/96/3 143/97/3
f 144/98/4 146/99/4 136/100/4 134/92/4
f 35/101/5 39/102/5 37/103/5 33/104/5
f 40/102/6 36/101/6 34/105/6 38/106/6
f 149/107/1 151/108/1 153/109/1 147/110/1
f 148/111/7 154/112/7 157/113/7 155/114/7
f 156/115/3 158/116/3 161/117/3 159/118/3
f 160/119/4 162/120/4 152/121/4 150/122/4
f 43/123/5 47/124/5 45/125/5 41/126/5
f 48/127/6 44/128/6 42/129/6 46/130/6
f 165/131/1 167/132/1 169/133/1 163/134/1
f 164/135/2 170/136/2 173/137/2 171/138/2
f 172/139/3 174/140/3 177/141/3 175/142/3
f 176/143/4 178/144/4 168/145/4 166/146/4
f 51/147/5 55/148/5 53/149/5 49/150/5
f 56/148/6 52/151/6 50/152/6 54/149/6
f 181/153/1 183/154/1 185/155/1 179/156/1
f 195/157/3 194/158/3 187/159/3 189/160/3
f 193/161/6 191/162/6 186/163/6 184/164/6 188/165/6
f 190/166/4 62/167/4 58/168/4 182/169/4
f 180/170/8 60/171/8 192/172/8 198/173/8
f 65/174/9 196/175/9 197/176/9 66/177/9
f 59/178/5 63/179/5 64/180/5 61/181/5 57/182/5
