# Blender 3.3.0
# www.blender.org
mtllib city_block11.mtl
o block11
v -20.579113 0.000000 -22.757809
v -20.579113 7.165958 -22.757809
v -20.579113 0.000000 -27.012119
v -20.579113 7.165958 -27.012119
v -12.072403 0.000000 -22.757809
v -12.072403 7.165958 -22.757809
v -12.072403 0.000000 -27.012119
v -12.072403 7.165958 -27.012119
v -12.413597 0.000000 -22.403461
v -12.413597 8.379944 -22.403461
v -12.413597 0.000000 -26.061596
v -12.413597 8.379944 -26.061596
v -5.194756 0.000000 -22.403461
v -5.194756 8.379944 -22.403461
v -5.194756 0.000000 -26.061596
v -5.194756 8.379944 -26.061596
v -5.437126 0.000000 -22.694405
v -5.437126 5.642998 -22.694405
v -5.437126 0.000000 -26.865204
v -5.437126 5.642998 -26.865204
v -0.997051 0.000000 -22.694405
v -0.997051 5.642998 -22.694405
v -0.997051 0.000000 -26.865204
v -0.997051 5.642998 -26.865204
v -1.196270 0.000000 -22.439190
v -1.196270 6.052238 -22.439190
v -1.196270 0.000000 -25.819164
v -1.196270 6.052238 -25.819164
v 3.709867 0.000000 -22.439190
v 3.709867 6.052238 -22.439190
v 3.709867 0.000000 -25.819164
v 3.709867 6.052238 -25.819164
v 3.657120 0.000000 -22.704647
v 3.657120 7.867517 -22.704647
v 3.657120 0.000000 -28.687099
v 3.657120 7.867517 -28.687099
v 8.533516 0.000000 -22.704647
v 8.533516 7.867517 -22.704647
v 8.533516 0.000000 -28.687099
v 8.533516 7.867517 -28.687099
v 8.449787 0.000000 -23.344917
v 8.449787 6.839512 -23.344917
v 8.449787 0.000000 -27.589851
v 8.449787 6.839512 -27.589851
v 12.226398 0.000000 -23.344917
v 12.226398 6.839512 -23.344917
v 12.226398 0.000000 -27.589851
v 12.226398 6.839512 -27.589851
v 12.038979 0.000002 -22.912346
v 12.038979 7.575078 -22.912346
v 12.038979 0.000002 -26.779282
v 12.038979 7.575078 -26.779282
v 15.637589 0.000002 -22.912346
v 15.637589 7.575078 -22.912346
v 15.637589 0.000002 -26.779282
v 15.637589 7.575078 -26.779282
v 15.491451 0.000000 -23.759575
v 15.491451 5.639925 -23.759575
v 15.491451 0.000000 -26.547508
v 15.491451 5.639925 -26.547508
v 20.546528 0.000000 -23.759575
v 20.546528 5.639925 -23.759575
v 20.546528 0.000000 -26.547508
v 20.546528 5.639925 -26.547508
v 20.530399 0.000000 -23.545502
v 20.530399 6.173393 -23.545502
v 20.530399 0.000000 -26.914490
v 20.530399 6.173393 -26.914490
v 23.284092 0.000000 -23.545502
v 23.284092 6.173393 -23.545502
v 23.284092 0.000000 -26.914490
v 23.284092 6.173393 -26.914490
v 23.234253 0.000000 -23.090946
v 23.234253 6.774243 -23.090946
v 23.234253 0.000000 -26.492336
v 23.234253 6.774243 -26.492336
v 26.724655 0.000000 -23.090946
v 26.724655 6.774243 -23.090946
v 26.724655 0.000000 -26.492336
v 26.724655 6.774243 -26.492336
v -20.579113 0.000000 -27.012119
v -20.579113 0.000000 -27.012119
v -20.579113 0.000000 -22.757809
v -20.579113 0.000000 -22.757809
v -20.579113 7.165958 -22.757809
v -20.579113 7.165958 -22.757809
v -20.579113 7.165958 -27.012119
v -20.579113 7.165958 -27.012119
v -12.072403 0.000000 -27.012119
v -12.072403 0.000000 -27.012119
v -12.072403 7.165958 -27.012119
v -12.072403 7.165958 -27.012119
v -12.072403 0.000000 -22.757809
v -12.072403 0.000000 -22.757809
v -12.072403 7.165958 -22.757809
v -12.072403 7.165958 -22.757809
v -12.413597 0.000000 -26.061596
v -12.413597 0.000000 -26.061596
v -12.413597 0.000000 -22.403461
v -12.413597 0.000000 -22.403461
v -12.413597 8.379944 -22.403461
v -12.413597 8.379944 -22.403461
v -12.413597 8.379944 -26.061596
v -12.413597 8.379944 -26.061596
v -5.194756 0.000000 -26.061596
v -5.194756 0.000000 -26.061596
v -5.194756 8.379944 -26.061596
v -5.194756 8.379944 -26.061596
v -5.194756 0.000000 -22.403461
v -5.194756 0.000000 -22.403461
v -5.194756 8.379944 -22.403461
v -5.194756 8.379944 -22.403461
v -5.437126 0.000000 -26.865204
v -5.437126 0.000000 -26.865204
v -5.437126 0.000000 -22.694405
v -5.437126 0.000000 -22.694405
v -5.437126 5.642998 -22.694405
v -5.437126 5.642998 -22.694405
v -5.437126 5.642998 -26.865204
v -5.437126 5.642998 -26.865204
v -0.997051 0.000000 -26.865204
v -0.997051 0.000000 -26.865204
v -0.997051 5.642998 -26.865204
v -0.997051 5.642998 -26.865204
v -0.997051 0.000000 -22.694405
v -0.997051 0.000000 -22.694405
v -0.997051 5.642998 -22.694405
v -0.997051 5.642998 -22.694405
v -1.196270 0.000000 -25.819164
v -1.196270 0.000000 -25.819164
v -1.196270 0.000000 -22.439190
v -1.196270 0.000000 -22.439190
v -1.196270 6.052238 -22.439190
v -1.196270 6.052238 -22.439190
v -1.196270 6.052238 -25.819164
v -1.196270 6.052238 -25.819164
v 3.709867 0.000000 -25.819164
v 3.709867 0.000000 -25.819164
v 3.709867 6.052238 -25.819164
v 3.709867 6.052238 -25.819164
v 3.709867 0.000000 -22.439190
v 3.709867 0.000000 -22.439190
v 3.709867 6.052238 -22.439190
v 3.709867 6.052238 -22.439190
v 3.657120 0.000000 -28.687099
v 3.657120 0.000000 -28.687099
v 3.657120 0.000000 -22.704647
v 3.657120 0.000000 -22.704647
v 3.657120 7.867517 -22.704647
v 3.657120 7.867517 -22.704647
v 3.657120 7.867517 -28.687099
v 3.657120 7.867517 -28.687099
v 8.533516 0.000000 -28.687099
v 8.533516 0.000000 -28.687099
v 8.533516 7.867517 -28.687099
v 8.533516 7.867517 -28.687099
v 8.533516 0.000000 -22.704647
v 8.533516 0.000000 -22.704647
v 8.533516 7.867517 -22.704647
v 8.533516 7.867517 -22.704647
v 8.449787 0.000000 -27.589851
v 8.449787 0.000000 -27.589851
v 8.449787 0.000000 -23.344917
v 8.449787 0.000000 -23.344917
v 8.449787 6.839512 -23.344917
v 8.449787 6.839512 -23.344917
v 8.449787 6.839512 -27.589851
v 8.449787 6.839512 -27.589851
v 12.226398 0.000000 -27.589851
v 12.226398 0.000000 -27.589851
v 12.226398 6.839512 -27.589851
v 12.226398 6.839512 -27.589851
v 12.226398 0.000000 -23.344917
v 12.226398 0.000000 -23.344917
v 12.226398 6.839512 -23.344917
v 12.226398 6.839512 -23.344917
v 12.038979 0.000002 -26.779282
v 12.038979 0.000002 -26.779282
v 12.038979 0.000002 -22.912346
v 12.038979 0.000002 -22.912346
v 12.038979 7.575078 -22.912346
v 12.038979 7.575078 -22.912346
v 12.038979 7.575078 -26.779282
v 12.038979 7.575078 -26.779282
v 15.637589 0.000002 -26.779282
v 15.637589 0.000002 -26.779282
v 15.637589 7.575078 -26.779282
v 15.637589 7.575078 -26.779282
v 15.637589 0.000002 -22.912346
v 15.637589 0.000002 -22.912346
v 15.637589 7.575078 -22.912346
v 15.637589 7.575078 -22.912346
v 15.491451 0.000000 -26.547508
v 15.491451 0.000000 -26.547508
v 15.491451 0.000000 -23.759575
v 15.491451 0.000000 -23.759575
v 15.491451 5.639925 -23.759575
v 15.491451 5.639925 -23.759575
v 15.491451 5.639925 -26.547508
v 15.491451 5.639925 -26.547508
v 20.546528 0.000000 -26.547508
v 20.546528 0.000000 -26.547508
v 20.546528 5.639925 -26.547508
v 20.546528 5.639925 -26.547508
v 20.546528 0.000000 -23.759575
v 20.546528 0.000000 -23.759575
v 20.546528 5.639925 -23.759575
v 20.546528 5.639925 -23.759575
v 20.530399 0.000000 -26.914490
v 20.530399 0.000000 -26.914490
v 20.530399 0.000000 -23.545502
v 20.530399 0.000000 -23.545502
v 20.530399 6.173393 -23.545502
v 20.530399 6.173393 -23.545502
v 20.530399 6.173393 -26.914490
v 20.530399 6.173393 -26.914490
v 23.284092 0.000000 -26.914490
v 23.284092 0.000000 -26.914490
v 23.284092 6.173393 -26.914490
v 23.284092 6.173393 -26.914490
v 23.284092 0.000000 -23.545502
v 23.284092 0.000000 -23.545502
v 23.284092 6.173393 -23.545502
v 23.284092 6.173393 -23.545502
v 23.234253 0.000000 -26.492336
v 23.234253 0.000000 -26.492336
v 23.234253 0.000000 -23.090946
v 23.234253 0.000000 -23.090946
v 23.234253 6.774243 -23.090946
v 23.234253 6.774243 -23.090946
v 23.234253 6.774243 -26.492336
v 23.234253 6.774243 -26.492336
v 26.724655 0.000000 -26.492336
v 26.724655 0.000000 -26.492336
v 26.724655 6.774243 -26.492336
v 26.724655 6.774243 -26.492336
v 26.724655 0.000000 -23.090946
v 26.724655 0.000000 -23.090946
v 26.724655 6.774243 -23.090946
v 26.724655 6.774243 -23.090946
vn -1.0000 -0.0000 -0.0000
vn -0.0000 -0.0000 -1.0000
vn 1.0000 -0.0000 -0.0000
vn -0.0000 -0.0000 1.0000
vn -0.0000 -1.0000 -0.0000
vn -0.0000 1.0000 -0.0000
vt 0.089209 0.804597
vt 0.198869 0.406687
vt 0.114632 0.804597
vt 0.173446 0.406687
vt 0.089209 0.855431
vt 0.198869 0.457522
vt 0.114632 0.855431
vt 0.173446 0.457522
vt -0.004839 0.139923
vt 1.000706 0.125285
vt -0.004839 0.118063
vt 1.000706 0.103425
vt 0.038299 0.139923
vt 0.957568 0.125285
vt 0.038299 0.118063
vt 0.957568 0.103425
vt 0.108806 0.742800
vt 0.840475 0.161305
vt 0.133729 0.742800
vt 0.815551 0.161305
vt 0.108806 0.769332
vt 0.840475 0.187838
vt 0.133729 0.769332
vt 0.815551 0.187838
vt 0.471409 0.386056
vt 0.390073 0.736034
vt 0.491607 0.386056
vt 0.390073 0.715836
vt 0.471409 0.415374
vt 0.360755 0.736034
vt 0.491607 0.415374
vt 0.360755 0.715836
vt 0.222183 0.601772
vt 0.073119 0.988007
vt 0.257933 0.601772
vt 0.108869 0.988007
vt 0.222183 0.630912
vt 0.073119 0.958867
vt 0.257933 0.630912
vt 0.108869 0.958867
vt 0.894109 0.084621
vt 0.021276 0.892859
vt 0.894109 0.109988
vt 0.046643 0.892859
vt 0.871541 0.084621
vt 0.021276 0.870291
vt 0.871541 0.109988
vt 0.046643 0.870291
vt 0.172809 0.491844
vt 0.769625 0.228148
vt 0.172809 0.468736
vt 0.792733 0.228148
vt 0.194313 0.491844
vt 0.769625 0.206643
vt 0.194313 0.468736
vt 0.792733 0.206643
vt 0.404696 -0.014512
vt 0.104036 0.705033
vt 0.421357 -0.014512
vt 0.104036 0.688373
vt 0.404696 0.015697
vt 0.073828 0.705033
vt 0.421357 0.015697
vt 0.073828 0.688373
vt 0.846296 0.463417
vt 0.533404 0.424625
vt 0.866428 0.463417
vt 0.513271 0.424625
vt 0.846296 0.479872
vt 0.533404 0.441081
vt 0.866428 0.479872
vt 0.513271 0.441081
vt 0.707875 0.882041
vt 0.613771 0.498999
vt 0.728202 0.882041
vt 0.593445 0.498999
vt 0.707875 0.902899
vt 0.613771 0.519857
vt 0.728202 0.902899
vt 0.593445 0.519857
vt 0.211544 0.505298
vt 0.538379 0.606483
vt 0.236967 0.505298
vt 0.369467 0.957099
vt 0.236967 0.548120
vt 0.412290 0.957099
vt 0.211544 0.548120
vt 0.581201 0.606483
vt 0.538379 0.657317
vt 0.781812 0.956681
vt 0.581201 0.657317
vt 0.781812 0.999503
vt 0.756389 0.956681
vt 0.369467 0.906265
vt 0.756389 0.999503
vt 0.412290 0.906265
vt 0.572594 0.947683
vt 0.723442 0.884883
vt 0.594454 0.947683
vt 0.635237 0.122219
vt 0.594454 0.997760
vt 0.635237 0.172296
vt 0.572594 0.997760
vt 0.723442 0.934960
vt 0.680304 0.884883
vt 0.879690 0.305493
vt 0.680304 0.934960
vt 0.829613 0.305493
vt 0.879690 0.283633
vt 0.678375 0.122219
vt 0.829613 0.283633
vt 0.678375 0.172296
vt 0.657876 0.820886
vt 0.145311 0.715998
vt 0.682800 0.820886
vt 0.216739 0.103996
vt 0.682800 0.854608
vt 0.183018 0.103996
vt 0.657876 0.854608
vt 0.145311 0.749720
vt 0.118778 0.715998
vt 0.633274 0.449885
vt 0.118778 0.749720
vt 0.599552 0.449885
vt 0.633274 0.424962
vt 0.216739 0.130529
vt 0.599552 0.424962
vt 0.183018 0.130529
vt 0.296978 0.803129
vt 0.669248 0.900116
vt 0.317176 0.803129
vt 1.011948 0.811675
vt 0.317176 0.839296
vt 1.011948 0.775508
vt 0.296978 0.839296
vt 0.705415 0.900116
vt 0.669248 0.929434
vt 0.935077 0.649713
vt 0.705415 0.929434
vt 0.935077 0.685880
vt 0.914879 0.649713
vt 0.982630 0.811675
vt 0.914879 0.685880
vt 0.982630 0.775508
vt 0.375056 0.712055
vt 0.668730 0.052569
vt 0.410806 0.712055
vt 0.367712 0.936617
vt 0.410806 0.759070
vt 0.367712 0.983632
vt 0.375056 0.759070
vt 0.668730 0.099584
vt 0.639590 0.052569
vt 0.217195 0.169990
vt 0.639590 0.099584
vt 0.217195 0.217004
vt 0.181445 0.169990
vt 0.396852 0.936617
vt 0.181445 0.217004
vt 0.396852 0.983632
vt 0.975863 0.374988
vt 0.891892 0.416295
vt 1.001230 0.374988
vt 0.691975 0.862377
vt 1.001230 0.415860
vt 0.651103 0.862377
vt 0.975863 0.415860
vt 0.891892 0.457166
vt 0.869324 0.416295
vt 0.209938 0.184496
vt 0.869324 0.457166
vt 0.209938 0.225367
vt 0.184571 0.184496
vt 0.691975 0.884946
vt 0.184571 0.225367
vt 0.651103 0.884946
vt 0.478020 1.003317
vt 0.893678 0.626293
vt 0.454912 1.003317
vt 0.767361 0.295019
vt 0.454912 0.958049
vt 0.767361 0.249752
vt 0.478020 0.958049
vt 0.893678 0.671560
vt 0.872173 0.626293
vt 0.787583 0.743168
vt 0.872173 0.671560
vt 0.787583 0.788436
vt 0.764475 0.743168
vt 0.745857 0.295019
vt 0.764475 0.788436
vt 0.745857 0.249752
vt 0.140465 0.911399
vt 0.237984 0.097983
vt 0.123805 0.911399
vt 0.919190 0.680285
vt 0.123805 0.877696
vt 0.885487 0.680285
vt 0.140465 0.877696
vt 0.237984 0.064279
vt 0.268192 0.097983
vt 0.749463 0.857903
vt 0.268192 0.064279
vt 0.749463 0.891606
vt 0.732803 0.857903
vt 0.919190 0.710493
vt 0.732803 0.891606
vt 0.885487 0.710493
vt 0.084861 0.818008
vt 0.950462 0.546629
vt 0.104993 0.818008
vt 0.850564 0.941580
vt 0.104993 0.854899
vt 0.813673 0.941580
vt 0.084861 0.854899
vt 0.950462 0.583520
vt 0.934007 0.546629
vt 0.357970 0.830282
vt 0.934007 0.583520
vt 0.357970 0.793391
vt 0.378103 0.830282
vt 0.850564 0.958036
vt 0.378103 0.793391
vt 0.813673 0.958036
vt 0.889172 0.838667
vt 0.590576 0.573789
vt 0.889172 0.818341
vt 0.690586 0.543270
vt 0.929653 0.818341
vt 0.650104 0.543270
vt 0.929653 0.838667
vt 0.550095 0.573789
vt 0.590576 0.552931
vt 0.137672 0.544212
vt 0.550095 0.552931
vt 0.137672 0.584694
vt 0.117346 0.544212
vt 0.690586 0.564128
vt 0.117346 0.584694
vt 0.650104 0.564128
s 0
f 83/83/1 85/85/1 87/87/1 81/81/1
f 82/82/2 88/88/2 91/91/2 89/89/2
f 90/90/3 92/92/3 95/95/3 93/93/3
f 94/94/4 96/96/4 86/86/4 84/84/4
f 3/3/5 7/7/5 5/5/5 1/1/5
f 8/8/6 4/4/6 2/2/6 6/6/6
f 99/99/1 101/101/1 103/103/1 97/97/1
f 98/98/2 104/104/2 107/107/2 105/105/2
f 106/106/3 108/108/3 111/111/3 109/109/3
f 110/110/4 112/112/4 102/102/4 100/100/4
f 11/11/5 15/15/5 13/13/5 9/9/5
f 16/16/6 12/12/6 10/10/6 14/14/6
f 115/115/1 117/117/1 119/119/1 113/113/1
f 114/114/2 120/120/2 123/123/2 121/121/2
f 122/122/3 124/124/3 127/127/3 125/125/3
f 126/126/4 128/128/4 118/118/4 116/116/4
f 19/19/5 23/23/5 21/21/5 17/17/5
f 24/24/6 20/20/6 18/18/6 22/22/6
f 131/131/1 133/133/1 135/135/1 129/129/1
f 130/130/2 136/136/2 139/139/2 137/137/2
f 138/138/3 140/140/3 143/143/3 141/141/3
f 142/142/4 144/144/4 134/134/4 132/132/4
f 27/27/5 31/31/5 29/29/5 25/25/5
f 32/32/6 28/28/6 26/26/6 30/30/6
f 147/147/1 149/149/1 151/151/1 145/145/1
f 146/146/2 152/152/2 155/155/2 153/153/2
f 154/154/3 156/156/3 159/159/3 157/157/3
f 158/158/4 160/160/4 150/150/4 148/148/4
f 35/35/5 39/39/5 37/37/5 33/33/5
f 40/40/6 36/36/6 34/34/6 38/38/6
f 163/163/1 165/165/1 167/167/1 161/161/1
f 162/162/2 168/168/2 171/171/2 169/169/2
f 170/170/3 172/172/3 175/175/3 173/173/3
f 174/174/4 176/176/4 166/166/4 164/164/4
f 43/43/5 47/47/5 45/45/5 41/41/5
f 48/48/6 44/44/6 42/42/6 46/46/6
f 179/179/1 181/181/1 183/183/1 177/177/1
f 178/178/2 184/184/2 187/187/2 185/185/2
f 186/186/3 188/188/3 191/191/3 189/189/3
f 190/190/4 192/192/4 182/182/4 180/180/4
f 51/51/5 55/55/5 53/53/5 49/49/5
f 56/56/6 52/52/6 50/50/6 54/54/6
f 195/195/1 197/197/1 199/199/1 193/193/1
f 194/194/2 200/200/2 203/203/2 201/201/2
f 202/202/3 204/204/3 207/207/3 205/205/3
f 206/206/4 208/208/4 198/198/4 196/196/4
f 59/59/5 63/63/5 61/61/5 57/57/5
f 64/64/6 60/60/6 58/58/6 62/62/6
f 211/211/1 213/213/1 215/215/1 209/209/1
f 210/210/2 216/216/2 219/219/2 217/217/2
f 218/218/3 220/220/3 223/223/3 221/221/3
f 222/222/4 224/224/4 214/214/4 212/212/4
f 67/67/5 71/71/5 69/69/5 65/65/5
f 72/72/6 68/68/6 66/66/6 70/70/6
f 227/227/1 229/229/1 231/231/1 225/225/1
f 226/226/2 232/232/2 235/235/2 233/233/2
f 234/234/3 236/236/3 239/239/3 237/237/3
f 238/238/4 240/240/4 230/230/4 228/228/4
f 75/75/5 79/79/5 77/77/5 73/73/5
f 80/80/6 76/76/6 74/74/6 78/78/6
