# Blender 3.6.2
# www.blender.org
mtllib city_block5.mtl
o block5
v -22.574615 0.000000 2.524272
v -22.574615 5.288715 2.524272
v -22.574615 0.000000 -5.788072
v -22.574615 5.288715 -5.788072
v -18.222816 0.000000 0.325358
v -18.222816 5.288715 0.325358
v -18.222816 0.000000 -5.788072
v -18.222816 5.288715 -5.788072
v -25.013470 0.000000 4.187965
v -25.013470 5.835815 4.187965
v -39.314148 5.303334 11.918301
v -39.314148 0.000000 11.918301
v -22.522825 0.000000 2.719741
v -22.522825 5.835815 2.719741
v -22.522825 0.000000 -0.605000
v -22.522825 5.835815 -0.605000
v -28.707066 0.000000 5.677097
v -28.707066 5.189795 5.677097
v -30.511784 0.000000 2.430798
v -30.511784 5.189795 2.430798
v -25.041082 0.000000 3.639062
v -25.041082 5.189795 3.639062
v -26.845800 0.000000 0.392764
v -26.845800 5.189795 0.392764
v -32.038326 -0.006543 7.617815
v -32.038326 2.980910 7.617815
v -32.046200 -0.006543 4.594992
v -32.046200 2.980910 4.594992
v -28.649221 -0.006543 5.519067
v -28.649221 2.980910 5.519067
v -29.855690 -0.006543 3.348887
v -29.855690 2.980910 3.348887
v -27.362316 0.000000 0.255839
v -26.873806 0.000000 -0.605000
v -26.873806 5.835815 -0.605000
v -27.362316 5.835815 0.255839
v -39.314148 0.000000 6.020396
v -39.314148 5.303334 6.020396
v -35.031738 0.000000 9.680477
v -35.031738 5.303334 9.680477
v -35.031738 0.000000 6.020396
v -35.031738 5.303334 6.020396
v -35.070793 0.000000 9.382524
v -35.070793 2.998517 9.382524
v -35.070793 0.000000 3.721606
v -35.070793 2.998517 3.721606
v -33.179176 0.000000 8.368917
v -33.179176 2.998517 8.368917
v -33.179176 0.000000 3.721606
v -33.179176 2.998517 3.721606
v -38.665535 0.000000 6.037683
v -38.665535 4.155935 6.037683
v -38.665535 0.000000 2.788463
v -38.665535 4.155935 2.788463
v -34.178642 0.000000 6.037683
v -34.178642 4.155935 6.037683
v -34.178642 0.000000 2.788463
v -34.178642 4.155935 2.788463
v -39.401367 0.000000 2.841043
v -39.401367 4.473616 2.841043
v -39.401367 0.000000 -2.549056
v -39.401367 4.473616 -2.549056
v -35.781281 0.000000 2.841043
v -35.781281 4.473616 2.841043
v -35.781281 0.000000 -2.549056
v -35.781281 4.473616 -2.549056
v -39.069817 0.000000 -2.469273
v -39.069817 5.078354 -2.469273
v -39.069817 0.000000 -5.853406
v -39.069817 5.078354 -5.853406
v -32.082481 0.000000 -2.469273
v -32.082481 5.078354 -2.469273
v -32.082481 0.000000 -5.853406
v -32.082481 5.078354 -5.853406
v -32.096519 0.000000 -2.350425
v -32.096519 3.443356 -2.350425
v -32.096519 0.000000 -5.467531
v -32.096519 3.443356 -5.467531
v -27.546322 0.000000 -2.350425
v -27.546322 3.443356 -2.350425
v -27.546322 0.000000 -5.467531
v -27.546322 3.443356 -5.467531
v -27.613537 1.435740 -5.283788
v -27.613537 0.000000 -5.283788
v -23.714540 0.000000 -5.283788
v -23.714540 1.435740 -5.283788
v -27.613537 0.000000 -4.823444
v -27.613537 1.435740 -4.823444
v -23.714540 0.000000 -4.823444
v -23.714540 1.435740 -4.823444
v -22.574615 0.000000 -5.788072
v -22.574615 0.000000 -5.788072
v -22.574615 0.000000 2.524272
v -22.574615 0.000000 2.524272
v -22.574615 5.288715 2.524272
v -22.574615 5.288715 2.524272
v -22.574615 5.288715 -5.788072
v -22.574615 5.288715 -5.788072
v -18.222816 0.000000 -5.788072
v -18.222816 0.000000 -5.788072
v -18.222816 5.288715 -5.788072
v -18.222816 5.288715 -5.788072
v -18.222816 0.000000 0.325358
v -18.222816 0.000000 0.325358
v -18.222816 5.288715 0.325358
v -18.222816 5.288715 0.325358
v -35.031738 0.000000 6.020396
v -35.031738 0.000000 6.020396
v -39.314148 0.000000 6.020396
v -39.314148 0.000000 6.020396
v -25.013470 0.000000 4.187965
v -25.013470 0.000000 4.187965
v -25.013470 5.835815 4.187965
v -25.013470 5.835815 4.187965
v -39.314148 0.000000 11.918301
v -39.314148 0.000000 11.918301
v -39.314148 5.303334 11.918301
v -39.314148 5.303334 11.918301
v -39.314148 5.303334 6.020396
v -39.314148 5.303334 6.020396
v -22.522825 5.835815 -0.605000
v -22.522825 5.835815 -0.605000
v -22.522825 0.000000 -0.605000
v -22.522825 0.000000 -0.605000
v -22.522825 0.000000 2.719741
v -22.522825 0.000000 2.719741
v -22.522825 5.835815 2.719741
v -22.522825 5.835815 2.719741
v -30.511784 0.000000 2.430798
v -30.511784 0.000000 2.430798
v -28.707066 0.000000 5.677097
v -28.707066 0.000000 5.677097
v -28.707066 5.189795 5.677097
v -28.707066 5.189795 5.677097
v -30.511784 5.189795 2.430798
v -30.511784 5.189795 2.430798
v -26.845800 0.000000 0.392764
v -26.845800 0.000000 0.392764
v -26.845800 5.189795 0.392764
v -26.845800 5.189795 0.392764
v -25.041082 0.000000 3.639062
v -25.041082 0.000000 3.639062
v -25.041082 5.189795 3.639062
v -25.041082 5.189795 3.639062
v -32.046200 -0.006543 4.594992
v -32.046200 -0.006543 4.594992
v -32.038326 -0.006543 7.617815
v -32.038326 -0.006543 7.617815
v -32.038326 2.980910 7.617815
v -32.038326 2.980910 7.617815
v -32.046200 2.980910 4.594992
v -32.046200 2.980910 4.594992
v -29.855690 -0.006543 3.348887
v -29.855690 -0.006543 3.348887
v -29.855690 2.980910 3.348887
v -29.855690 2.980910 3.348887
v -28.649221 -0.006543 5.519067
v -28.649221 -0.006543 5.519067
v -28.649221 2.980910 5.519067
v -28.649221 2.980910 5.519067
v -27.362316 5.835815 0.255839
v -27.362316 5.835815 0.255839
v -26.873806 5.835815 -0.605000
v -26.873806 5.835815 -0.605000
v -26.873806 0.000000 -0.605000
v -26.873806 0.000000 -0.605000
v -27.362316 0.000000 0.255839
v -27.362316 0.000000 0.255839
v -35.031738 5.303334 6.020396
v -35.031738 5.303334 6.020396
v -35.031738 0.000000 9.680477
v -35.031738 0.000000 9.680477
v -35.031738 5.303334 9.680477
v -35.031738 5.303334 9.680477
v -35.070793 0.000000 3.721606
v -35.070793 0.000000 3.721606
v -35.070793 0.000000 9.382524
v -35.070793 0.000000 9.382524
v -35.070793 2.998517 9.382524
v -35.070793 2.998517 9.382524
v -35.070793 2.998517 3.721606
v -35.070793 2.998517 3.721606
v -33.179176 0.000000 3.721606
v -33.179176 0.000000 3.721606
v -33.179176 2.998517 3.721606
v -33.179176 2.998517 3.721606
v -33.179176 0.000000 8.368917
v -33.179176 0.000000 8.368917
v -33.179176 2.998517 8.368917
v -33.179176 2.998517 8.368917
v -38.665535 0.000000 2.788463
v -38.665535 0.000000 2.788463
v -38.665535 0.000000 6.037683
v -38.665535 0.000000 6.037683
v -38.665535 4.155935 6.037683
v -38.665535 4.155935 6.037683
v -38.665535 4.155935 2.788463
v -38.665535 4.155935 2.788463
v -34.178642 0.000000 2.788463
v -34.178642 0.000000 2.788463
v -34.178642 4.155935 2.788463
v -34.178642 4.155935 2.788463
v -34.178642 0.000000 6.037683
v -34.178642 0.000000 6.037683
v -34.178642 4.155935 6.037683
v -34.178642 4.155935 6.037683
v -39.401367 0.000000 -2.549056
v -39.401367 0.000000 -2.549056
v -39.401367 0.000000 2.841043
v -39.401367 0.000000 2.841043
v -39.401367 4.473616 2.841043
v -39.401367 4.473616 2.841043
v -39.401367 4.473616 -2.549056
v -39.401367 4.473616 -2.549056
v -35.781281 0.000000 -2.549056
v -35.781281 0.000000 -2.549056
v -35.781281 4.473616 -2.549056
v -35.781281 4.473616 -2.549056
v -35.781281 0.000000 2.841043
v -35.781281 0.000000 2.841043
v -35.781281 4.473616 2.841043
v -35.781281 4.473616 2.841043
v -39.069817 0.000000 -5.853406
v -39.069817 0.000000 -5.853406
v -39.069817 0.000000 -2.469273
v -39.069817 0.000000 -2.469273
v -39.069817 5.078354 -2.469273
v -39.069817 5.078354 -2.469273
v -39.069817 5.078354 -5.853406
v -39.069817 5.078354 -5.853406
v -32.082481 0.000000 -5.853406
v -32.082481 0.000000 -5.853406
v -32.082481 5.078354 -5.853406
v -32.082481 5.078354 -5.853406
v -32.082481 0.000000 -2.469273
v -32.082481 0.000000 -2.469273
v -32.082481 5.078354 -2.469273
v -32.082481 5.078354 -2.469273
v -32.096519 0.000000 -5.467531
v -32.096519 0.000000 -5.467531
v -32.096519 0.000000 -2.350425
v -32.096519 0.000000 -2.350425
v -32.096519 3.443356 -2.350425
v -32.096519 3.443356 -2.350425
v -32.096519 3.443356 -5.467531
v -32.096519 3.443356 -5.467531
v -27.546322 0.000000 -5.467531
v -27.546322 0.000000 -5.467531
v -27.546322 3.443356 -5.467531
v -27.546322 3.443356 -5.467531
v -27.546322 0.000000 -2.350425
v -27.546322 0.000000 -2.350425
v -27.546322 3.443356 -2.350425
v -27.546322 3.443356 -2.350425
v -23.714540 0.000000 -4.823444
v -23.714540 0.000000 -4.823444
v -23.714540 0.000000 -5.283788
v -23.714540 0.000000 -5.283788
v -27.613537 0.000000 -5.283788
v -27.613537 0.000000 -5.283788
v -27.613537 1.435740 -5.283788
v -27.613537 1.435740 -5.283788
v -23.714540 1.435740 -5.283788
v -23.714540 1.435740 -5.283788
v -23.714540 1.435740 -4.823444
v -23.714540 1.435740 -4.823444
v -27.613537 0.000000 -4.823444
v -27.613537 0.000000 -4.823444
v -27.613537 1.435740 -4.823444
v -27.613537 1.435740 -4.823444
vn -1.0000 -0.0000 -0.0000
vn -0.0000 -0.0000 -1.0000
vn 1.0000 -0.0000 -0.0000
vn 0.4510 -0.0000 0.8925
vn -0.0000 -1.0000 -0.0000
vn -0.0000 1.0000 -0.0000
vn 0.5078 -0.0000 0.8615
vn -0.8585 -0.0000 0.5128
vn -0.8740 -0.0000 0.4859
vn -0.4859 -0.0000 -0.8740
vn 0.8740 -0.0000 -0.4859
vn 0.4859 -0.0000 0.8740
vn -1.0000 -0.0000 0.0026
vn -0.4945 -0.0000 -0.8692
vn 0.5265 -0.0000 0.8502
vn -0.8697 -0.0000 -0.4935
vn 0.4631 -0.0000 0.8863
vn 0.4723 -0.0000 0.8814
vn -0.0000 -0.0000 1.0000
vt 0.380256 0.639335
vt 0.348656 0.639335
vt 0.348656 0.589669
vt 0.380256 0.589669
vt 0.884470 0.682438
vt 0.852870 0.682438
vt 0.852870 0.656436
vt 0.884470 0.656436
vt 0.815517 0.605997
vt 0.815517 0.637596
vt 0.778989 0.637596
vt 0.778989 0.605997
vt 0.852870 0.553848
vt 0.884470 0.553848
vt 0.884470 0.582981
vt 0.852870 0.582981
vt 0.550912 0.639335
vt 0.524910 0.639335
vt 0.524910 0.602808
vt 0.550912 0.589669
vt 0.576913 0.639335
vt 0.550912 0.589669
vt 0.576913 0.602808
vt 0.852530 0.217727
vt 0.817662 0.217727
vt 0.817661 0.191730
vt 0.852530 0.191730
vt 0.747926 0.914718
vt 0.747926 0.888722
vt 0.753070 0.885803
vt 0.776564 0.899837
vt 0.767791 0.914718
vt 0.817661 0.286254
vt 0.852530 0.286254
vt 0.852530 0.306119
vt 0.817661 0.306119
vt 0.817662 0.392124
vt 0.852530 0.392124
vt 0.852530 0.409398
vt 0.817662 0.409398
vt 0.852530 0.129665
vt 0.817661 0.129665
vt 0.817661 0.102298
vt 0.852530 0.102298
vt 0.499679 0.849729
vt 0.467992 0.849729
vt 0.467992 0.814489
vt 0.499679 0.814489
vt 0.916749 0.359641
vt 0.885740 0.359641
vt 0.885740 0.337448
vt 0.916749 0.337448
vt 0.916749 0.263000
vt 0.885740 0.263000
vt 0.885740 0.237938
vt 0.916749 0.237938
vt 0.916749 0.359641
vt 0.916749 0.381833
vt 0.885740 0.381833
vt 0.885740 0.263000
vt 0.916749 0.263000
vt 0.916749 0.288061
vt 0.885740 0.288061
vt 0.969995 0.489586
vt 0.944934 0.489586
vt 0.944934 0.467393
vt 0.969995 0.467393
vt 0.944934 0.445201
vt 0.969995 0.445201
vt 0.944934 0.467393
vt 0.804481 0.969236
vt 0.804481 0.987086
vt 0.786705 0.987086
vt 0.786705 0.969236
vt 0.882651 0.987086
vt 0.882651 0.969236
vt 0.896159 0.969236
vt 0.896159 0.987086
vt 0.864171 0.969236
vt 0.864171 0.987086
vt 0.849335 0.987086
vt 0.849335 0.969236
vt 0.637546 0.945014
vt 0.655396 0.945014
vt 0.655396 0.966747
vt 0.637546 0.966747
vt 0.691327 0.953223
vt 0.691248 0.966731
vt 0.676412 0.966731
vt 0.675561 0.945014
vt 0.691406 0.966731
vt 0.691327 0.953223
vt 0.707093 0.945014
vt 0.706242 0.966731
vt 0.852530 0.846418
vt 0.817661 0.846418
vt 0.817661 0.840504
vt 0.852530 0.840504
vt 0.800058 0.885803
vt 0.805201 0.888722
vt 0.805201 0.914719
vt 0.785336 0.914719
vt 0.776564 0.899837
vt 0.884557 0.608568
vt 0.852870 0.608568
vt 0.852870 0.582981
vt 0.884557 0.582981
vt 0.852870 0.741557
vt 0.884557 0.741557
vt 0.884557 0.763425
vt 0.852870 0.763425
vt 0.852870 0.474498
vt 0.884557 0.474498
vt 0.884557 0.503368
vt 0.852870 0.503368
vt 0.770940 0.814489
vt 0.796527 0.814489
vt 0.796527 0.836358
vt 0.770940 0.849729
vt 0.745353 0.814489
vt 0.770940 0.814489
vt 0.770940 0.849729
vt 0.745353 0.836358
vt 0.295906 0.884944
vt 0.277990 0.884944
vt 0.277990 0.851120
vt 0.295906 0.851120
vt 0.896159 0.987152
vt 0.896159 0.969236
vt 0.907461 0.969236
vt 0.907461 0.987152
vt 0.697065 0.916014
vt 0.714981 0.916014
vt 0.714981 0.943781
vt 0.697065 0.943781
vt 0.882651 0.969236
vt 0.882651 0.987152
vt 0.869828 0.987152
vt 0.869828 0.969236
vt 0.523821 0.851120
vt 0.535123 0.851120
vt 0.535123 0.878887
vt 0.523821 0.884944
vt 0.546425 0.851120
vt 0.546425 0.884944
vt 0.969765 0.679866
vt 0.944934 0.679866
vt 0.944934 0.660452
vt 0.969765 0.660452
vt 0.944147 0.237946
vt 0.944147 0.262778
vt 0.917338 0.262778
vt 0.917338 0.237946
vt 0.969765 0.679866
vt 0.969765 0.699279
vt 0.944934 0.699279
vt 0.917338 0.287609
vt 0.944147 0.287609
vt 0.944147 0.477167
vt 0.917338 0.477167
vt 0.917338 0.457753
vt 0.944147 0.457753
vt 0.944147 0.457753
vt 0.917338 0.457753
vt 0.917338 0.438339
vt 0.944147 0.438339
vt 0.885075 0.145694
vt 0.885075 0.172423
vt 0.852870 0.172423
vt 0.852870 0.145694
vt 0.944068 0.416709
vt 0.917338 0.416709
vt 0.917339 0.395080
vt 0.944068 0.395080
vt 0.852870 0.199153
vt 0.852870 0.172423
vt 0.885075 0.172423
vt 0.885075 0.199153
vt 0.917338 0.416709
vt 0.944068 0.416709
vt 0.944068 0.438339
vt 0.917338 0.438339
vt 0.852870 0.348170
vt 0.852870 0.326541
vt 0.885075 0.326541
vt 0.885075 0.348170
vt 0.852870 0.369800
vt 0.885075 0.369800
vt 0.916083 0.636460
vt 0.885740 0.636460
vt 0.885740 0.616240
vt 0.916083 0.616240
vt 0.736451 0.635048
vt 0.736451 0.665391
vt 0.694702 0.665391
vt 0.694702 0.635048
vt 0.885740 0.596020
vt 0.916083 0.596020
vt 0.694702 0.695734
vt 0.736451 0.695734
vt 0.134959 0.773485
vt 0.134959 0.731736
vt 0.155179 0.731736
vt 0.155179 0.773485
vt 0.155179 0.773485
vt 0.155179 0.731736
vt 0.175399 0.731736
vt 0.175399 0.773485
vt 0.063461 0.969236
vt 0.063461 0.989810
vt 0.044837 0.989810
vt 0.044837 0.969236
vt 0.944526 0.024490
vt 0.944526 0.045064
vt 0.917338 0.045064
vt 0.917338 0.024490
vt 0.082086 0.969236
vt 0.082086 0.989810
vt 0.063461 0.989810
vt 0.063461 0.969236
vt 0.917338 0.065638
vt 0.917338 0.045064
vt 0.944526 0.045064
vt 0.944526 0.065638
vt 0.944526 0.152600
vt 0.917338 0.152600
vt 0.917338 0.133975
vt 0.944526 0.133975
vt 0.917338 0.115351
vt 0.944526 0.115351
vt 0.944526 0.133975
vt 0.917338 0.133975
vt 0.292800 0.989406
vt 0.284222 0.989406
vt 0.284222 0.969236
vt 0.292800 0.969236
vt 0.989254 0.144666
vt 0.997832 0.144666
vt 0.997832 0.147417
vt 0.989254 0.147417
vt 0.275643 0.969236
vt 0.284222 0.989406
vt 0.275643 0.989406
vt 0.989254 0.147417
vt 0.997832 0.147417
vt 0.997832 0.150167
vt 0.989254 0.150167
vt 0.417399 0.969236
vt 0.420150 0.969236
vt 0.420150 0.989406
vt 0.417399 0.989406
vt 0.422900 0.969236
vt 0.422900 0.989406
s 0
f 93/1/1 95/2/1 97/3/1 91/4/1
f 92/5/2 98/6/2 101/7/2 99/8/2
f 100/9/3 102/10/3 105/11/3 103/12/3
f 104/13/4 106/14/4 96/15/4 94/16/4
f 3/17/5 7/18/5 5/19/5 1/20/5
f 8/21/6 4/17/6 2/22/6 6/23/6
f 165/24/2 164/25/2 121/26/2 123/27/2
f 122/28/6 163/29/6 161/30/6 114/31/6 127/32/6
f 124/33/3 16/34/3 128/35/3 125/36/3
f 126/37/7 14/38/7 113/39/7 111/40/7
f 112/41/8 10/42/8 162/43/8 168/44/8
f 115/45/1 117/46/1 119/47/1 110/48/1
f 131/49/9 133/50/9 135/51/9 129/52/9
f 130/53/10 136/54/10 139/55/10 137/56/10
f 138/50/11 140/57/11 143/58/11 141/59/11
f 142/60/12 144/61/12 134/62/12 132/63/12
f 19/64/5 23/65/5 21/66/5 17/67/5
f 24/68/6 20/69/6 18/67/6 22/70/6
f 147/71/13 149/72/13 151/73/13 145/74/13
f 146/75/14 152/76/14 155/77/14 153/78/14
f 154/79/11 156/80/11 159/81/11 157/82/11
f 158/83/15 160/84/15 150/85/15 148/86/15
f 27/87/5 31/88/5 29/89/5 25/90/5
f 32/91/6 28/92/6 26/93/6 30/94/6
f 35/95/16 166/96/16 167/97/16 36/98/16
f 33/99/5 34/100/5 15/101/5 13/102/5 9/103/5
f 109/104/2 120/105/2 169/106/2 107/107/2
f 108/108/3 170/109/3 173/110/3 171/111/3
f 172/112/17 174/113/17 118/114/17 116/115/17
f 37/116/5 41/117/5 39/118/5 12/119/5
f 42/120/6 38/121/6 11/122/6 40/123/6
f 177/124/1 179/125/1 181/126/1 175/127/1
f 176/128/2 182/129/2 185/130/2 183/131/2
f 184/132/3 186/133/3 189/134/3 187/135/3
f 188/136/18 190/137/18 180/138/18 178/139/18
f 45/140/5 49/141/5 47/142/5 43/143/5
f 50/141/6 46/144/6 44/145/6 48/142/6
f 193/146/1 195/147/1 197/148/1 191/149/1
f 192/150/2 198/151/2 201/152/2 199/153/2
f 200/147/3 202/154/3 205/155/3 203/156/3
f 204/157/19 206/152/19 196/151/19 194/158/19
f 53/159/5 57/160/5 55/161/5 51/162/5
f 58/163/6 54/164/6 52/165/6 56/166/6
f 209/167/1 211/168/1 213/169/1 207/170/1
f 208/171/2 214/172/2 217/173/2 215/174/2
f 216/175/3 218/176/3 221/177/3 219/178/3
f 220/179/19 222/180/19 212/181/19 210/182/19
f 61/183/5 65/184/5 63/185/5 59/186/5
f 66/187/6 62/183/6 60/186/6 64/188/6
f 225/189/1 227/190/1 229/191/1 223/192/1
f 224/193/2 230/194/2 233/195/2 231/196/2
f 232/197/3 234/198/3 237/192/3 235/191/3
f 236/199/19 238/195/19 228/194/19 226/200/19
f 69/201/5 73/202/5 71/203/5 67/204/5
f 74/205/6 70/206/6 68/207/6 72/208/6
f 241/209/1 243/210/1 245/211/1 239/212/1
f 240/213/2 246/214/2 249/215/2 247/216/2
f 248/217/3 250/218/3 253/219/3 251/220/3
f 252/221/19 254/222/19 244/223/19 242/224/19
f 77/225/5 81/226/5 79/227/5 75/228/5
f 82/229/6 78/230/6 76/231/6 80/232/6
f 259/233/2 261/234/2 263/235/2 258/236/2
f 257/237/3 264/238/3 265/239/3 255/240/3
f 256/241/19 266/235/19 269/242/19 267/243/19
f 268/244/1 270/245/1 262/246/1 260/247/1
f 85/248/5 89/249/5 87/250/5 84/251/5
f 90/249/6 86/252/6 83/253/6 88/250/6
