# Blender 3.3.0
# www.blender.org
mtllib city_block5.mtl
o block5
v -22.574615 0.000000 2.524272
v -22.574615 5.288715 2.524272
v -22.574615 0.000000 -5.788072
v -22.574615 5.288715 -5.788072
v -18.222816 0.000000 0.325358
v -18.222816 5.288715 0.325358
v -18.222816 0.000000 -5.788072
v -18.222816 5.288715 -5.788072
v -25.013470 0.000000 4.187965
v -25.013470 5.835815 4.187965
v -39.314148 5.303334 11.918301
v -39.314148 0.000000 11.918301
v -22.522825 0.000000 2.719741
v -22.522825 5.835815 2.719741
v -22.522825 0.000000 -0.605000
v -22.522825 5.835815 -0.605000
v -28.707066 0.000000 5.677097
v -28.707066 5.189795 5.677097
v -30.511784 0.000000 2.430798
v -30.511784 5.189795 2.430798
v -25.041082 0.000000 3.639062
v -25.041082 5.189795 3.639062
v -26.845800 0.000000 0.392764
v -26.845800 5.189795 0.392764
v -31.756664 -0.006543 7.409629
v -31.756664 2.980910 7.409629
v -31.838013 -0.006543 4.435791
v -31.838013 2.980910 4.435791
v -28.649221 -0.006543 5.519067
v -28.649221 2.980910 5.519067
v -29.855690 -0.006543 3.348887
v -29.855690 2.980910 3.348887
v -27.362316 0.000000 0.255839
v -26.873806 0.000000 -0.605000
v -26.873806 5.835815 -0.605000
v -27.362316 5.835815 0.255839
v -39.314148 0.000000 6.020396
v -39.314148 5.303334 6.020396
v -35.031738 0.000000 9.680477
v -35.031738 5.303334 9.680477
v -35.031738 0.000000 6.020396
v -35.031738 5.303334 6.020396
v -35.070793 0.000000 9.382524
v -35.070793 2.998517 9.382524
v -35.070793 0.000000 3.721606
v -35.070793 2.998517 3.721606
v -33.179176 0.000000 8.368917
v -33.179176 2.998517 8.368917
v -33.179176 0.000000 3.721606
v -33.179176 2.998517 3.721606
v -38.665535 0.000000 6.037683
v -38.665535 4.155935 6.037683
v -38.665535 0.000000 2.788463
v -38.665535 4.155935 2.788463
v -34.178642 0.000000 6.037683
v -34.178642 4.155935 6.037683
v -34.178642 0.000000 2.788463
v -34.178642 4.155935 2.788463
v -39.401367 0.000000 2.841043
v -39.401367 4.473616 2.841043
v -39.401367 0.000000 -2.549056
v -39.401367 4.473616 -2.549056
v -35.781281 0.000000 2.841043
v -35.781281 4.473616 2.841043
v -35.781281 0.000000 -2.549056
v -35.781281 4.473616 -2.549056
v -39.069817 0.000000 -2.469273
v -39.069817 5.078354 -2.469273
v -39.069817 0.000000 -5.853406
v -39.069817 5.078354 -5.853406
v -32.082481 0.000000 -2.469273
v -32.082481 5.078354 -2.469273
v -32.082481 0.000000 -5.853406
v -32.082481 5.078354 -5.853406
v -32.096519 0.000000 -2.350425
v -32.096519 3.443356 -2.350425
v -32.096519 0.000000 -5.467531
v -32.096519 3.443356 -5.467531
v -27.546322 0.000000 -2.350425
v -27.546322 3.443356 -2.350425
v -27.546322 0.000000 -5.467531
v -27.546322 3.443356 -5.467531
v -27.613537 1.629720 -5.283788
v -27.613537 0.000000 -5.283788
v -24.237652 0.000000 -5.283788
v -24.237652 1.629720 -5.283788
v -27.613537 0.000000 -4.823444
v -27.613537 1.629720 -4.823444
v -24.237652 0.000000 -4.823444
v -24.237652 1.629720 -4.823444
v -22.574615 0.000000 -5.788072
v -22.574615 0.000000 -5.788072
v -22.574615 0.000000 2.524272
v -22.574615 0.000000 2.524272
v -22.574615 5.288715 2.524272
v -22.574615 5.288715 2.524272
v -22.574615 5.288715 -5.788072
v -22.574615 5.288715 -5.788072
v -18.222816 0.000000 -5.788072
v -18.222816 0.000000 -5.788072
v -18.222816 5.288715 -5.788072
v -18.222816 5.288715 -5.788072
v -18.222816 0.000000 0.325358
v -18.222816 0.000000 0.325358
v -18.222816 5.288715 0.325358
v -18.222816 5.288715 0.325358
v -35.031738 0.000000 6.020396
v -35.031738 0.000000 6.020396
v -39.314148 0.000000 6.020396
v -39.314148 0.000000 6.020396
v -25.013470 0.000000 4.187965
v -25.013470 0.000000 4.187965
v -25.013470 5.835815 4.187965
v -25.013470 5.835815 4.187965
v -39.314148 0.000000 11.918301
v -39.314148 0.000000 11.918301
v -39.314148 5.303334 11.918301
v -39.314148 5.303334 11.918301
v -39.314148 5.303334 6.020396
v -39.314148 5.303334 6.020396
v -22.522825 5.835815 -0.605000
v -22.522825 5.835815 -0.605000
v -22.522825 0.000000 -0.605000
v -22.522825 0.000000 -0.605000
v -22.522825 0.000000 2.719741
v -22.522825 0.000000 2.719741
v -22.522825 5.835815 2.719741
v -22.522825 5.835815 2.719741
v -30.511784 0.000000 2.430798
v -30.511784 0.000000 2.430798
v -28.707066 0.000000 5.677097
v -28.707066 0.000000 5.677097
v -28.707066 5.189795 5.677097
v -28.707066 5.189795 5.677097
v -30.511784 5.189795 2.430798
v -30.511784 5.189795 2.430798
v -26.845800 0.000000 0.392764
v -26.845800 0.000000 0.392764
v -26.845800 5.189795 0.392764
v -26.845800 5.189795 0.392764
v -25.041082 0.000000 3.639062
v -25.041082 0.000000 3.639062
v -25.041082 5.189795 3.639062
v -25.041082 5.189795 3.639062
v -31.838013 -0.006543 4.435791
v -31.838013 -0.006543 4.435791
v -31.756664 -0.006543 7.409629
v -31.756664 -0.006543 7.409629
v -31.756664 2.980910 7.409629
v -31.756664 2.980910 7.409629
v -31.838013 2.980910 4.435791
v -31.838013 2.980910 4.435791
v -29.855690 -0.006543 3.348887
v -29.855690 -0.006543 3.348887
v -29.855690 2.980910 3.348887
v -29.855690 2.980910 3.348887
v -28.649221 -0.006543 5.519067
v -28.649221 -0.006543 5.519067
v -28.649221 2.980910 5.519067
v -28.649221 2.980910 5.519067
v -27.362316 5.835815 0.255839
v -27.362316 5.835815 0.255839
v -26.873806 5.835815 -0.605000
v -26.873806 5.835815 -0.605000
v -26.873806 0.000000 -0.605000
v -26.873806 0.000000 -0.605000
v -27.362316 0.000000 0.255839
v -27.362316 0.000000 0.255839
v -35.031738 5.303334 6.020396
v -35.031738 5.303334 6.020396
v -35.031738 0.000000 9.680477
v -35.031738 0.000000 9.680477
v -35.031738 5.303334 9.680477
v -35.031738 5.303334 9.680477
v -35.070793 0.000000 3.721606
v -35.070793 0.000000 3.721606
v -35.070793 0.000000 9.382524
v -35.070793 0.000000 9.382524
v -35.070793 2.998517 9.382524
v -35.070793 2.998517 9.382524
v -35.070793 2.998517 3.721606
v -35.070793 2.998517 3.721606
v -33.179176 0.000000 3.721606
v -33.179176 0.000000 3.721606
v -33.179176 2.998517 3.721606
v -33.179176 2.998517 3.721606
v -33.179176 0.000000 8.368917
v -33.179176 0.000000 8.368917
v -33.179176 2.998517 8.368917
v -33.179176 2.998517 8.368917
v -38.665535 0.000000 2.788463
v -38.665535 0.000000 2.788463
v -38.665535 0.000000 6.037683
v -38.665535 0.000000 6.037683
v -38.665535 4.155935 6.037683
v -38.665535 4.155935 6.037683
v -38.665535 4.155935 2.788463
v -38.665535 4.155935 2.788463
v -34.178642 0.000000 2.788463
v -34.178642 0.000000 2.788463
v -34.178642 4.155935 2.788463
v -34.178642 4.155935 2.788463
v -34.178642 0.000000 6.037683
v -34.178642 0.000000 6.037683
v -34.178642 4.155935 6.037683
v -34.178642 4.155935 6.037683
v -39.401367 0.000000 -2.549056
v -39.401367 0.000000 -2.549056
v -39.401367 0.000000 2.841043
v -39.401367 0.000000 2.841043
v -39.401367 4.473616 2.841043
v -39.401367 4.473616 2.841043
v -39.401367 4.473616 -2.549056
v -39.401367 4.473616 -2.549056
v -35.781281 0.000000 -2.549056
v -35.781281 0.000000 -2.549056
v -35.781281 4.473616 -2.549056
v -35.781281 4.473616 -2.549056
v -35.781281 0.000000 2.841043
v -35.781281 0.000000 2.841043
v -35.781281 4.473616 2.841043
v -35.781281 4.473616 2.841043
v -39.069817 0.000000 -5.853406
v -39.069817 0.000000 -5.853406
v -39.069817 0.000000 -2.469273
v -39.069817 0.000000 -2.469273
v -39.069817 5.078354 -2.469273
v -39.069817 5.078354 -2.469273
v -39.069817 5.078354 -5.853406
v -39.069817 5.078354 -5.853406
v -32.082481 0.000000 -5.853406
v -32.082481 0.000000 -5.853406
v -32.082481 5.078354 -5.853406
v -32.082481 5.078354 -5.853406
v -32.082481 0.000000 -2.469273
v -32.082481 0.000000 -2.469273
v -32.082481 5.078354 -2.469273
v -32.082481 5.078354 -2.469273
v -32.096519 0.000000 -5.467531
v -32.096519 0.000000 -5.467531
v -32.096519 0.000000 -2.350425
v -32.096519 0.000000 -2.350425
v -32.096519 3.443356 -2.350425
v -32.096519 3.443356 -2.350425
v -32.096519 3.443356 -5.467531
v -32.096519 3.443356 -5.467531
v -27.546322 0.000000 -5.467531
v -27.546322 0.000000 -5.467531
v -27.546322 3.443356 -5.467531
v -27.546322 3.443356 -5.467531
v -27.546322 0.000000 -2.350425
v -27.546322 0.000000 -2.350425
v -27.546322 3.443356 -2.350425
v -27.546322 3.443356 -2.350425
v -24.237652 0.000000 -4.823444
v -24.237652 0.000000 -4.823444
v -24.237652 0.000000 -5.283788
v -24.237652 0.000000 -5.283788
v -27.613537 0.000000 -5.283788
v -27.613537 0.000000 -5.283788
v -27.613537 1.629720 -5.283788
v -27.613537 1.629720 -5.283788
v -24.237652 1.629720 -5.283788
v -24.237652 1.629720 -5.283788
v -24.237652 1.629720 -4.823444
v -24.237652 1.629720 -4.823444
v -27.613537 0.000000 -4.823444
v -27.613537 0.000000 -4.823444
v -27.613537 1.629720 -4.823444
v -27.613537 1.629720 -4.823444
vn -1.0000 -0.0000 -0.0000
vn -0.0000 -0.0000 -1.0000
vn 1.0000 -0.0000 -0.0000
vn 0.4510 -0.0000 0.8925
vn -0.0000 -1.0000 -0.0000
vn -0.0000 1.0000 -0.0000
vn 0.5078 -0.0000 0.8615
vn -0.8585 -0.0000 0.5128
vn -0.8740 -0.0000 0.4859
vn -0.4859 -0.0000 -0.8740
vn 0.8740 -0.0000 -0.4859
vn 0.4859 -0.0000 0.8740
vn -0.9996 -0.0000 0.0273
vn -0.4808 -0.0000 -0.8768
vn 0.5198 -0.0000 0.8543
vn -0.8697 -0.0000 -0.4935
vn 0.4631 -0.0000 0.8863
vn 0.4723 -0.0000 0.8814
vn -0.0000 -0.0000 1.0000
vt 0.412025 0.549010
vt -0.019216 0.635069
vt 0.412025 0.598445
vt 0.030219 0.635069
vt 0.386143 0.562087
vt -0.006139 0.609187
vt 0.386143 0.598445
vt 0.030219 0.609187
vt 0.415159 0.112890
vt 0.239265 0.046674
vt 0.051547 0.815207
vt 0.921356 0.394770
vt 0.423891 0.127703
vt 0.894539 0.567875
vt 0.443664 0.127703
vt 0.534381 0.192250
vt 0.113143 0.145780
vt 0.857891 0.656072
vt 0.135232 0.145780
vt 0.857891 0.678161
vt 0.113143 0.170726
vt 0.882836 0.656072
vt 0.135232 0.170726
vt 0.882836 0.678161
vt 0.843995 0.972090
vt 0.565041 0.279424
vt 0.852166 0.956397
vt 0.573211 0.295117
vt 0.865611 0.971243
vt 0.586656 0.280271
vt 0.865611 0.956476
vt 0.586656 0.295038
vt 0.438544 0.098921
vt 0.443664 0.101826
vt 0.943881 0.877100
vt 0.937995 0.877100
vt 0.921356 0.429846
vt 0.051547 0.850284
vt 0.895888 0.408079
vt 0.077016 0.828516
vt 0.895888 0.429846
vt 0.077016 0.850284
vt 0.440896 0.779248
vt 0.794864 0.699602
vt 0.440896 0.812915
vt 0.828531 0.699602
vt 0.429646 0.785276
vt 0.800893 0.688352
vt 0.429646 0.812915
vt 0.828531 0.688352
vt 0.320067 0.370302
vt 0.022610 0.084878
vt 0.320067 0.389626
vt 0.022610 0.065554
vt 0.293383 0.370302
vt -0.004075 0.084878
vt 0.293383 0.389626
vt -0.004075 0.065554
vt 0.960028 0.213869
vt 0.547255 0.909060
vt 0.960028 0.181813
vt 0.547255 0.877003
vt 0.981558 0.213869
vt 0.525726 0.909060
vt 0.981558 0.181813
vt 0.525726 0.877003
vt 0.537660 0.649557
vt 0.215803 0.120044
vt 0.537660 0.629431
vt 0.215803 0.099918
vt 0.579216 0.649557
vt 0.174248 0.120044
vt 0.579216 0.629431
vt 0.174248 0.099918
vt 0.504306 0.828996
vt 0.798875 0.208542
vt 0.522844 0.828996
vt 0.817413 0.208542
vt 0.504306 0.856057
vt 0.798875 0.181481
vt 0.522844 0.856057
vt 0.817413 0.181481
vt 0.494560 0.308357
vt 0.077658 0.750306
vt 0.077658 0.730228
vt 0.494560 0.328434
vt 0.080395 0.750306
vt 0.497298 0.308357
vt 0.080395 0.730228
vt 0.497298 0.328434
vt 0.910558 0.699641
vt 0.931138 0.124264
vt 0.959993 0.699641
vt 0.290123 0.772859
vt 0.959993 0.731094
vt 0.290123 0.804313
vt 0.910558 0.731094
vt 0.931138 0.155718
vt 0.905257 0.124264
vt 0.171031 0.412395
vt 0.905257 0.155718
vt 0.171031 0.443849
vt 0.134673 0.412395
vt 0.319121 0.772859
vt 0.134673 0.443849
vt 0.319121 0.804313
vt 0.031860 0.536865
vt 0.892200 0.664485
vt 0.057328 0.536865
vt 0.347361 0.218415
vt 0.877344 0.533168
vt 0.239265 0.081381
vt 0.877344 0.567875
vt -0.000583 0.384928
vt 0.347361 0.183339
vt 0.477477 0.820945
vt 0.378901 0.183339
vt 0.445936 0.820945
vt 0.378901 0.218415
vt 0.057328 0.568405
vt 0.874593 0.055096
vt 0.027922 0.370116
vt 0.874593 0.020389
vt 0.534381 0.157543
vt 0.514608 0.157543
vt 0.894539 0.533168
vt 0.008149 0.370116
vt 0.514608 0.192250
vt 0.313754 0.101029
vt 0.501984 0.819039
vt 0.313754 0.123118
vt 0.198597 0.613040
vt 0.282889 0.123118
vt 0.229462 0.613040
vt 0.282889 0.101029
vt 0.532849 0.819039
vt 0.501984 0.843984
vt 0.879140 0.530639
vt 0.532849 0.843984
vt 0.848275 0.530639
vt 0.879140 0.508549
vt 0.198597 0.588095
vt 0.848275 0.508549
vt 0.229462 0.588095
vt 0.930256 0.303488
vt 0.691095 0.759554
vt 0.930256 0.321181
vt 0.839187 0.564307
vt 0.912489 0.321181
vt 0.856954 0.564307
vt 0.912489 0.303488
vt 0.691095 0.777321
vt 0.677650 0.759554
vt 0.869017 0.015147
vt 0.677650 0.777321
vt 0.869017 0.032914
vt 0.854249 0.015147
vt 0.839187 0.542675
vt 0.854249 0.032914
vt 0.856954 0.542675
vt 0.022803 0.398897
vt 0.266505 0.046674
vt 0.027922 0.395992
vt 0.900470 0.055096
vt 0.900470 0.020389
vt 0.943881 0.911807
vt 0.937995 0.911807
vt 0.266505 0.081381
vt 0.031860 0.568405
vt 0.892200 0.696025
vt 0.870432 0.664485
vt 0.477477 0.849681
vt 0.870432 0.696025
vt 0.445936 0.849681
vt 0.404289 0.811501
vt 0.167841 0.250638
vt 0.437956 0.811501
vt 0.667528 0.648707
vt 0.437956 0.829333
vt 0.667528 0.666540
vt 0.404289 0.829333
vt 0.150008 0.250638
vt 0.167841 0.239388
vt 0.020227 0.818225
vt 0.150008 0.239388
vt 0.002394 0.818225
vt 0.020227 0.790587
vt 0.680292 0.648707
vt 0.002394 0.790587
vt 0.680292 0.666540
vt 0.404105 0.941803
vt 0.989580 0.077515
vt 0.423429 0.941803
vt 0.172483 0.243343
vt 0.423429 0.966519
vt 0.197199 0.243343
vt 0.404105 0.966519
vt 0.989580 0.102232
vt 0.962895 0.077515
vt 0.474237 0.856530
vt 0.962895 0.102232
vt 0.474237 0.881247
vt 0.454913 0.856530
vt 0.172483 0.216658
vt 0.454913 0.881247
vt 0.197199 0.216658
vt 0.417084 0.349098
vt 0.147349 0.114370
vt 0.449140 0.349098
vt 0.541527 0.257130
vt 0.449140 0.375703
vt 0.541527 0.283736
vt 0.417084 0.375703
vt 0.147349 0.140976
vt 0.125819 0.114370
vt 0.939365 0.586125
vt 0.125819 0.140976
vt 0.939365 0.612731
vt 0.907309 0.586125
vt 0.563056 0.257130
vt 0.907309 0.612731
vt 0.563056 0.283736
vt 0.405106 0.418086
vt 0.633329 0.916568
vt 0.425232 0.418086
vt 0.440174 0.380124
vt 0.425232 0.448288
vt 0.470377 0.380124
vt 0.405106 0.448288
vt 0.663531 0.916568
vt 0.633329 0.958124
vt 0.616146 0.667078
vt 0.663531 0.958124
vt 0.616146 0.697280
vt 0.596020 0.667078
vt 0.440174 0.338568
vt 0.596020 0.697280
vt 0.470377 0.338568
vt 0.990315 0.589280
vt 0.953196 0.500320
vt 0.990315 0.607818
vt 0.227022 0.237530
vt 0.969836 0.607818
vt 0.206543 0.237530
vt 0.969836 0.589280
vt 0.953196 0.520798
vt 0.926135 0.500320
vt 0.345032 0.588880
vt 0.926135 0.520798
vt 0.365510 0.588880
vt 0.345032 0.607418
vt 0.227022 0.264591
vt 0.365510 0.607418
vt 0.206543 0.264591
vt 0.856064 0.167816
vt 0.942395 0.092626
vt 0.853326 0.167816
vt 0.744878 0.600465
vt 0.744878 0.580388
vt 0.533411 0.875389
vt 0.754570 0.580388
vt 0.533411 0.865697
vt 0.754570 0.600465
vt 0.853326 0.158124
vt 0.856064 0.158124
vt 0.932703 0.092626
vt 0.942395 0.072549
vt 0.530674 0.875389
vt 0.932703 0.072549
vt 0.530674 0.865697
s 0
f 93/93/1 95/95/1 97/97/1 91/91/1
f 92/92/2 98/98/2 101/101/2 99/99/2
f 100/100/3 102/102/3 105/105/3 103/103/3
f 104/104/4 106/106/4 96/96/4 94/94/4
f 3/3/5 7/7/5 5/5/5 1/1/5
f 8/8/6 4/4/6 2/2/6 6/6/6
f 165/165/2 164/164/2 121/121/2 123/123/2
f 122/122/6 163/163/6 161/161/6 114/114/6 127/127/6
f 124/124/3 16/16/3 128/128/3 125/125/3
f 126/126/7 14/14/7 113/113/7 111/111/7
f 112/112/8 10/10/8 162/162/8 168/168/8
f 115/115/1 117/117/1 119/119/1 110/110/1
f 131/131/9 133/133/9 135/135/9 129/129/9
f 130/130/10 136/136/10 139/139/10 137/137/10
f 138/138/11 140/140/11 143/143/11 141/141/11
f 142/142/12 144/144/12 134/134/12 132/132/12
f 19/19/5 23/23/5 21/21/5 17/17/5
f 24/24/6 20/20/6 18/18/6 22/22/6
f 147/147/13 149/149/13 151/151/13 145/145/13
f 146/146/14 152/152/14 155/155/14 153/153/14
f 154/154/11 156/156/11 159/159/11 157/157/11
f 158/158/15 160/160/15 150/150/15 148/148/15
f 27/27/5 31/31/5 29/29/5 25/25/5
f 32/32/6 28/28/6 26/26/6 30/30/6
f 35/35/16 166/166/16 167/167/16 36/36/16
f 33/33/5 34/34/5 15/15/5 13/13/5 9/9/5
f 109/109/2 120/120/2 169/169/2 107/107/2
f 108/108/3 170/170/3 173/173/3 171/171/3
f 172/172/17 174/174/17 118/118/17 116/116/17
f 37/37/5 41/41/5 39/39/5 12/12/5
f 42/42/6 38/38/6 11/11/6 40/40/6
f 177/177/1 179/179/1 181/181/1 175/175/1
f 176/176/2 182/182/2 185/185/2 183/183/2
f 184/184/3 186/186/3 189/189/3 187/187/3
f 188/188/18 190/190/18 180/180/18 178/178/18
f 45/45/5 49/49/5 47/47/5 43/43/5
f 50/50/6 46/46/6 44/44/6 48/48/6
f 193/193/1 195/195/1 197/197/1 191/191/1
f 192/192/2 198/198/2 201/201/2 199/199/2
f 200/200/3 202/202/3 205/205/3 203/203/3
f 204/204/19 206/206/19 196/196/19 194/194/19
f 53/53/5 57/57/5 55/55/5 51/51/5
f 58/58/6 54/54/6 52/52/6 56/56/6
f 209/209/1 211/211/1 213/213/1 207/207/1
f 208/208/2 214/214/2 217/217/2 215/215/2
f 216/216/3 218/218/3 221/221/3 219/219/3
f 220/220/19 222/222/19 212/212/19 210/210/19
f 61/61/5 65/65/5 63/63/5 59/59/5
f 66/66/6 62/62/6 60/60/6 64/64/6
f 225/225/1 227/227/1 229/229/1 223/223/1
f 224/224/2 230/230/2 233/233/2 231/231/2
f 232/232/3 234/234/3 237/237/3 235/235/3
f 236/236/19 238/238/19 228/228/19 226/226/19
f 69/69/5 73/73/5 71/71/5 67/67/5
f 74/74/6 70/70/6 68/68/6 72/72/6
f 241/241/1 243/243/1 245/245/1 239/239/1
f 240/240/2 246/246/2 249/249/2 247/247/2
f 248/248/3 250/250/3 253/253/3 251/251/3
f 252/252/19 254/254/19 244/244/19 242/242/19
f 77/77/5 81/81/5 79/79/5 75/75/5
f 82/82/6 78/78/6 76/76/6 80/80/6
f 259/259/2 261/261/2 263/263/2 258/258/2
f 257/257/3 264/264/3 265/265/3 255/255/3
f 256/256/19 266/266/19 269/269/19 267/267/19
f 268/268/1 270/270/1 262/262/1 260/260/1
f 85/85/5 89/89/5 87/87/5 84/84/5
f 90/90/6 86/86/6 83/83/6 88/88/6
